<?xml version="1.0" encoding="UTF-8"?>
<svg version="1.1" xmlns="http://www.w3.org/2000/svg" width="2084" height="2084">
<path d="M0 0 C687.72 0 1375.44 0 2084 0 C2084 687.72 2084 1375.44 2084 2084 C1396.28 2084 708.56 2084 0 2084 C0 1396.28 0 708.56 0 0 Z " fill="#FDFDFE" transform="translate(0,0)"/>
<path d="M0 0 C78.07374702 -0.37705593 156.1476038 -0.72684636 234.22201538 -0.93154907 C235.3774771 -0.93458633 236.53293883 -0.93762358 237.72341454 -0.94075288 C262.83450822 -1.00659633 287.94561155 -1.06754041 313.05672929 -1.12343725 C325.371155 -1.15087873 337.68557809 -1.17940291 350 -1.20849609 C351.83815284 -1.21281114 351.83815284 -1.21281114 353.71344007 -1.21721336 C393.43593716 -1.3109691 433.15774591 -1.47622128 472.87982595 -1.67853886 C513.69834759 -1.88606343 554.51648829 -2.02148109 595.33552856 -2.06612978 C601.10045034 -2.07246922 606.86537082 -2.07963323 612.63029099 -2.08729935 C613.76491361 -2.08878265 614.89953623 -2.09026596 616.06854136 -2.09179421 C634.33569047 -2.11779594 652.60166192 -2.21984063 670.8683307 -2.35030475 C689.23125587 -2.47983419 707.59301328 -2.52929454 725.95637931 -2.4970303 C736.86852464 -2.48029126 747.77639741 -2.52493153 758.68777125 -2.65754595 C765.97911598 -2.74011086 773.26766704 -2.74256852 780.5592055 -2.6802999 C784.71468963 -2.64709511 788.86210983 -2.6483238 793.01672418 -2.74743001 C816.91247751 -3.28453612 816.91247751 -3.28453612 823.63950679 2.12098047 C828.13363989 7.24603283 831.06869421 12.91359898 833.72818057 19.1507502 C835.7684393 23.72153018 838.39579805 27.92168414 841 32.1875 C848.07165187 44.57204553 854.57885933 57.26930843 861 70 C861.75676025 71.49732666 861.75676025 71.49732666 862.52880859 73.02490234 C885.09158019 117.99107178 900.12940075 167.85361854 907.3125 217.625 C907.45953369 218.63933105 907.60656738 219.65366211 907.75805664 220.69873047 C908.22166449 224.1285073 908.62225862 227.55963107 909 231 C909.08613556 231.78154449 909.17227112 232.56308899 909.26101685 233.36831665 C911.0107161 249.73008186 911.36262792 265.99192498 911.3125 282.4375 C911.31034485 283.71402435 911.3081897 284.99054871 911.30596924 286.30575562 C911.2534621 305.71898151 910.77599447 324.7643955 908 344 C907.84727631 345.06495697 907.84727631 345.06495697 907.69146729 346.15142822 C906.00962601 357.8058288 904.0720182 369.40917646 902 381 C901.78005371 382.24297852 901.56010742 383.48595703 901.33349609 384.76660156 C897.30080593 407.16215727 891.66611637 429.19504953 886.15917969 451.26327515 C884.51431867 457.87096805 882.9339476 464.4917643 881.37890625 471.12109375 C879.7626847 477.99922748 877.95238915 484.78210839 875.96044922 491.5625 C874.07430305 498.31311973 872.59364991 505.16184301 871.0625 512 C870.71085574 513.55858576 870.35888247 515.11709733 870.0065918 516.67553711 C869.4825042 518.99491605 868.9588519 521.31438668 868.43696594 523.63426208 C867.48962679 527.84466151 866.52875161 532.05138997 865.546875 536.25390625 C858.68449536 565.67428124 853.4324826 595.49839352 849.875 625.5 C849.78758545 626.21186462 849.7001709 626.92372925 849.61010742 627.65716553 C848.49726575 636.90746928 847.9140719 646.07228251 847.79992676 655.39099121 C847.73819177 660.35811963 847.61396949 665.32327972 847.4944458 670.28930664 C847.45681605 672.74133072 847.45339128 675.19414455 847.48602295 677.64624023 C847.73339143 696.56265346 847.73339143 696.56265346 843.37374878 702.04507446 C839.0074896 705.81376618 833.9560559 708.17731202 828.76547241 710.60845947 C823.96120896 713.02588633 819.63888536 716.13473992 815.23046875 719.19921875 C813.3977431 720.44261256 811.56375085 721.68414141 809.72851562 722.92382812 C807.88135734 724.17816002 806.0343528 725.43271836 804.1875 726.6875 C793.6091159 733.86657753 783.03896163 741.03763744 772.25561523 747.90600586 C768.77533509 750.14450325 765.33426406 752.43449033 761.90234375 754.74609375 C761.3251207 755.13433823 760.74789764 755.5225827 760.15318298 755.92259216 C757.81473007 757.49649358 755.47722672 759.07173175 753.14379883 760.65307617 C751.39944914 761.83413389 749.6512421 763.00928594 747.90234375 764.18359375 C746.88648193 764.86993896 745.87062012 765.55628418 744.82397461 766.26342773 C742 768 742 768 739.19360352 768.86352539 C738.46971436 769.23856201 737.7458252 769.61359863 737 770 C736.64062205 771.99548455 736.30861877 773.99603753 736 776 C734.01660156 777.85180664 734.01660156 777.85180664 731.390625 779.41015625 C730.41907471 780.00070801 729.44752441 780.59125977 728.4465332 781.19970703 C726.86424927 782.12178955 726.86424927 782.12178955 725.25 783.0625 C724.16614014 783.71589355 723.08228027 784.36928711 721.96557617 785.04248047 C719.72866906 786.39092772 717.48732476 787.73204041 715.24169922 789.06591797 C710.56079287 791.85866839 705.93819513 794.74210925 701.3125 797.625 C699.59031878 798.69087208 697.86766281 799.75597746 696.14453125 800.8203125 C690.05144075 804.5857706 683.96136911 808.35609923 677.87207031 812.12768555 C673.51233396 814.82759294 669.15078133 817.52446697 664.78515625 820.21484375 C641.99296311 834.27066939 619.42752969 848.68789081 597.16015625 863.5625 C586.32894755 870.79680919 575.43952954 877.94310047 564.55908203 885.10302734 C548.59920912 895.60681838 532.68753295 906.18096189 516.8125 916.8125 C508.75968999 922.18828236 500.64697918 927.4729873 492.53637695 932.76098633 C480.09296819 940.85677614 480.09296819 940.85677614 467.82861328 949.21899414 C464.53181909 951.29478506 463.01441774 951.2681404 459.1875 951.0625 C450.26793911 951.52507024 444.53911416 956.36941074 437.46484375 961.32617188 C432.96609792 964.3811839 428.28655232 967.14010508 423.625 969.9375 C415.71261286 974.72109874 407.8571989 979.5813181 400.05200195 984.53759766 C393.4631795 988.71836813 386.83326951 992.83002061 380.19360352 996.92944336 C373.38412488 1001.1362712 366.59588475 1005.37624975 359.8125 1009.625 C352.11569058 1014.44345208 344.39770476 1019.22323393 336.64233398 1023.94677734 C322.34385916 1032.65828224 308.14314301 1041.52784377 293.94946289 1050.40869141 C284.84317954 1056.10406037 275.71337427 1061.76084495 266.57666016 1067.40722656 C262.21637358 1070.10255626 257.85831128 1072.80147792 253.5 1075.5 C251.7500104 1076.58335014 250.00001041 1077.66668348 248.25 1078.75 C247.38375 1079.28625 246.5175 1079.8225 245.625 1080.375 C237.75 1085.25 237.75 1085.25 235.12451172 1086.87524414 C233.37606993 1087.95765159 231.62769743 1089.04017097 229.87939453 1090.12280273 C225.48111774 1092.84622817 221.08162087 1095.5676444 216.6796875 1098.28515625 C208.19755406 1103.52423564 199.73333779 1108.7878737 191.3125 1114.125 C188.21001351 1116.08600561 185.10539651 1118.04360663 182 1120 C181.17709473 1120.51965332 180.35418945 1121.03930664 179.50634766 1121.57470703 C177.05100988 1123.12066045 174.58905307 1124.65548538 172.125 1126.1875 C171.38161377 1126.65752441 170.63822754 1127.12754883 169.87231445 1127.61181641 C169.17452881 1128.04284668 168.47674316 1128.47387695 167.7578125 1128.91796875 C167.1508252 1129.29719482 166.54383789 1129.6764209 165.91845703 1130.06713867 C162.73982378 1131.6127683 160.19479045 1132.32369902 156.73364258 1131.38598633 C155.96173584 1131.03818115 155.1898291 1130.69037598 154.39453125 1130.33203125 C153.50717285 1129.93975342 152.61981445 1129.54747559 151.70556641 1129.14331055 C150.27349854 1128.48455933 150.27349854 1128.48455933 148.8125 1127.8125 C147.80364746 1127.35979736 146.79479492 1126.90709473 145.75537109 1126.44067383 C143.6000849 1125.46988529 141.44781521 1124.49237669 139.29833984 1123.50878906 C136.06600953 1122.03019533 132.8250103 1120.57224993 129.58203125 1119.1171875 C101.77304815 1106.55536588 73.98867827 1092.63270371 49 1075 C47.87913401 1074.227534 46.75802603 1073.45541904 45.63671875 1072.68359375 C27.2155923 1059.89037092 12.05117526 1045.2499143 -1 1027 C-1.50708496 1026.29504395 -2.01416992 1025.59008789 -2.53662109 1024.86376953 C-57.28822774 948.62185301 -97.94529072 861.71241488 -111.25 768.25 C-111.40114258 767.20070313 -111.55228516 766.15140625 -111.70800781 765.0703125 C-114.66357025 742.92027348 -115.40976126 720.69822633 -115.375 698.375 C-115.37476082 697.71526562 -115.37452164 697.05553123 -115.37427521 696.3758049 C-115.36362972 673.04110882 -114.27402318 650.11223632 -111 627 C-110.88638123 626.18656128 -110.77276245 625.37312256 -110.65570068 624.53503418 C-108.04199297 605.89741613 -104.94578282 587.41986472 -100.69482422 569.08056641 C-99.88548888 565.49230453 -99.12773442 561.89421725 -98.37890625 558.29296875 C-95.37901241 543.88253977 -92.22096814 529.54344085 -88.70019531 515.24902344 C-85.30305936 501.34614042 -82.34228826 487.35031672 -79.36044312 473.35366821 C-78.44465589 469.05973815 -77.51269744 464.76999873 -76.55859375 460.484375 C-73.34632319 446.05303827 -70.56073064 431.56093313 -68 417 C-67.82082031 415.98776367 -67.64164063 414.97552734 -67.45703125 413.93261719 C-57.44818223 356.68275333 -54.12209268 296.86841145 -60 239 C-60.09651855 237.95408691 -60.19303711 236.90817383 -60.29248047 235.83056641 C-64.12733053 194.33988158 -71.64015639 152.7289451 -84.10083008 112.93652344 C-84.99590992 110.01335743 -85.84367996 107.07828953 -86.68763733 104.14002991 C-89.56201874 94.179675 -92.85715134 84.39719149 -96.3125 74.625 C-96.59491547 73.82138031 -96.87733093 73.01776062 -97.16830444 72.18978882 C-100.99431093 61.31579739 -105.01302054 50.58562752 -109.70703125 40.05078125 C-111 37 -111 37 -111 35 C-70.08 35 -29.16 35 13 35 C7.13554506 19.42067816 7.13554506 19.42067816 0.8125 4.08203125 C0 2 0 2 0 0 Z " fill="#0F52BA" transform="translate(585,360)"/>
<path d="M0 0 C0.33 0 0.66 0 1 0 C1.01417969 0.98097656 1.02835938 1.96195313 1.04296875 2.97265625 C1.46928897 17.61940873 4.6487779 30.97567558 15 42 C21.32708801 47.61222309 28.90848632 51.57354856 37 54 C37.93066284 54.33004028 37.93066284 54.33004028 38.88012695 54.66674805 C43.03657516 55.69925379 45.37669673 55.30933444 49.25073242 53.38671875 C52.97877357 51.12298929 56.51761309 48.59951313 60.0625 46.0625 C61.32072365 45.18853108 62.58047864 44.31676245 63.84179688 43.44726562 C66.9126414 41.32331576 69.96155757 39.17013454 73 37 C73.66 37.33 74.32 37.66 75 38 C57.75536124 52.07576572 57.75536124 52.07576572 50 58 C50.66 58.99 51.32 59.98 52 61 C51.9375 63.5 51.9375 63.5 51 66 C47.37302213 68.55601984 43.35028333 70.21788082 39.3112793 72.00585938 C23.44035706 79.1140477 13.53838105 88.36705739 7.09765625 104.70703125 C3.48049962 115.55850113 2.46683364 126.65111315 2 138 C1.67 138 1.34 138 1 138 C0.97421875 136.90945313 0.9484375 135.81890625 0.921875 134.6953125 C0.53690742 123.40377175 -1.21994006 112.93921261 -4 102 C-8.77461379 105.05781593 -13.13085368 108.45432046 -17.5 112.0625 C-22.62558554 116.2630259 -27.77423687 120.42471846 -33 124.5 C-38.73670281 128.97872584 -44.3898297 133.55345436 -50.02807617 138.15527344 C-54.9944912 142.2015808 -60.01448027 146.17342208 -65.0625 150.1171875 C-68.57822928 152.86862781 -72.05323621 155.66208062 -75.5 158.5 C-79.51875635 161.80887385 -83.58573993 165.04542838 -87.6875 168.25 C-94.95142912 173.92758853 -102.09635187 179.74700181 -109.24316406 185.57080078 C-114.17725883 189.5847239 -119.14707195 193.55288476 -124.15625 197.47265625 C-132.59709509 204.07785287 -140.93451398 210.8002426 -149.24316406 217.57080078 C-154.17725883 221.5847239 -159.14707195 225.55288476 -164.15625 229.47265625 C-172.59709509 236.07785287 -180.93451398 242.8002426 -189.24316406 249.57080078 C-194.17725883 253.5847239 -199.14707195 257.55288476 -204.15625 261.47265625 C-211.94725375 267.5693339 -219.65571612 273.75774505 -227.32421875 280.0078125 C-230.99708761 283.00093488 -234.68992763 285.96812069 -238.39453125 288.921875 C-240.4151604 290.53353124 -242.43309439 292.14834858 -244.44921875 293.765625 C-250.5652299 298.66943939 -256.69509084 303.55191633 -262.875 308.375 C-268.177987 312.51694221 -273.38194979 316.76865863 -278.5625 321.0625 C-284.48917711 325.97476034 -290.50094789 330.7198218 -296.62890625 335.37890625 C-301.39220601 339.04331319 -305.99140965 342.90972973 -310.61743164 346.74462891 C-316.29899236 351.44603546 -322.06603519 356.02515427 -327.87890625 360.5625 C-333.53086221 364.97654321 -339.12046028 369.46598706 -344.6796875 373.99609375 C-351.64353167 379.6706513 -358.62959898 385.30657865 -365.70996094 390.83520508 C-370.18375159 394.33722973 -374.59835671 397.90785432 -379 401.5 C-384.52339685 406.00759973 -390.09184436 410.44842642 -395.7109375 414.8359375 C-400.18436708 418.33776247 -404.59867202 421.90811164 -409 425.5 C-414.52339685 430.00759973 -420.09184436 434.44842642 -425.7109375 438.8359375 C-430.18436708 442.33776247 -434.59867202 445.90811164 -439 449.5 C-444.52339685 454.00759973 -450.09184436 458.44842642 -455.7109375 462.8359375 C-460.18436708 466.33776247 -464.59867202 469.90811164 -469 473.5 C-474.52339685 478.00759973 -480.09184436 482.44842642 -485.7109375 486.8359375 C-490.18436708 490.33776247 -494.59867202 493.90811164 -499 497.5 C-504.52339685 502.00759973 -510.09184436 506.44842642 -515.7109375 510.8359375 C-520.18436708 514.33776247 -524.59867202 517.90811164 -529 521.5 C-534.52339685 526.00759973 -540.09184436 530.44842642 -545.7109375 534.8359375 C-550.18436708 538.33776247 -554.59867202 541.90811164 -559 545.5 C-564.52339685 550.00759973 -570.09184436 554.44842642 -575.7109375 558.8359375 C-580.18436708 562.33776247 -584.59867202 565.90811164 -589 569.5 C-594.52339685 574.00759973 -600.09184436 578.44842642 -605.7109375 582.8359375 C-610.18436708 586.33776247 -614.59867202 589.90811164 -619 593.5 C-624.52339685 598.00759973 -630.09184436 602.44842642 -635.7109375 606.8359375 C-640.18436708 610.33776247 -644.59867202 613.90811164 -649 617.5 C-654.52339685 622.00759973 -660.09184436 626.44842642 -665.7109375 630.8359375 C-670.18436708 634.33776247 -674.59867202 637.90811164 -679 641.5 C-684.52339685 646.00759973 -690.09184436 650.44842642 -695.7109375 654.8359375 C-700.18436708 658.33776247 -704.59867202 661.90811164 -709 665.5 C-714.52339685 670.00759973 -720.09184436 674.44842642 -725.7109375 678.8359375 C-730.18436708 682.33776247 -734.59867202 685.90811164 -739 689.5 C-744.52339685 694.00759973 -750.09184436 698.44842642 -755.7109375 702.8359375 C-760.18436708 706.33776247 -764.59867202 709.90811164 -769 713.5 C-773.96237911 717.54975767 -778.95161417 721.55795183 -784 725.5 C-789.024513 729.42466235 -793.99529581 733.40968097 -798.9375 737.4375 C-808.96910118 745.61309788 -819.06056559 753.70933619 -829.25 761.6875 C-834.25353294 765.60544561 -839.19346677 769.59160169 -844.1015625 773.62890625 C-852.40124155 780.41853588 -860.80684833 787.07753883 -869.25 793.6875 C-874.25356128 797.60540903 -879.19346769 801.59160245 -884.1015625 805.62890625 C-892.40124155 812.41853588 -900.80684833 819.07753883 -909.25 825.6875 C-914.25356128 829.60540903 -919.19346769 833.59160245 -924.1015625 837.62890625 C-931.71846981 843.8599881 -939.41754688 849.99175169 -947.17456055 856.04736328 C-953.76688582 861.19439341 -960.23915569 866.47179387 -966.6809082 871.8059082 C-971.64914842 875.91118145 -976.67844083 879.92526768 -981.76171875 883.88671875 C-986.22089304 887.36853977 -990.61734231 890.92248072 -995 894.5 C-1000.52333657 899.00767214 -1006.09184597 903.44842767 -1011.7109375 907.8359375 C-1016.18437586 911.33776934 -1020.59835498 914.90848989 -1025 918.5 C-1030.22675744 922.75862806 -1035.46570762 927.00037002 -1040.75 931.1875 C-1041.32234375 931.64511719 -1041.8946875 932.10273437 -1042.484375 932.57421875 C-1045.22239555 934.73304265 -1047.85781544 936.50438424 -1051 938 C-1051.32049316 937.55422607 -1051.64098633 937.10845215 -1051.97119141 936.64916992 C-1053.52134431 934.49447384 -1055.07300036 932.3408663 -1056.625 930.1875 C-1057.48786621 928.98951782 -1057.48786621 928.98951782 -1058.36816406 927.76733398 C-1061.53261517 923.3835883 -1064.71902023 919.01816373 -1067.9453125 914.6796875 C-1068.58130371 913.8235083 -1069.21729492 912.9673291 -1069.87255859 912.08520508 C-1071.10909818 910.42367536 -1072.3489291 908.76458928 -1073.59228516 907.1081543 C-1074.1547998 906.35187744 -1074.71731445 905.59560059 -1075.296875 904.81640625 C-1075.79541992 904.15068604 -1076.29396484 903.48496582 -1076.80761719 902.79907227 C-1078 901 -1078 901 -1079 898 C-1080.32 898.33 -1081.64 898.66 -1083 899 C-1083.34289063 898.54753906 -1083.68578125 898.09507812 -1084.0390625 897.62890625 C-1089.94885986 889.9287023 -1096.16443167 882.48090467 -1102.34765625 875.00048828 C-1107.23779407 869.08001115 -1112.10145481 863.14005191 -1116.875 857.125 C-1120.01271435 853.187231 -1123.23733278 849.33394052 -1126.5 845.5 C-1131.99339459 839.03988026 -1137.31571955 832.46099543 -1142.515625 825.76171875 C-1147.69015216 819.10888918 -1152.99119308 812.6180991 -1158.51635742 806.25317383 C-1162.47141152 801.67441109 -1166.21844742 796.95991737 -1169.92578125 792.1796875 C-1173.02305512 788.20129261 -1176.22011392 784.32885993 -1179.5 780.5 C-1183.78923988 775.49080236 -1187.89609251 770.36466216 -1191.9453125 765.16015625 C-1195.67848914 760.37403235 -1199.55370445 755.7194847 -1203.4609375 751.07421875 C-1206.24676408 747.70122565 -1208.9404626 744.26609609 -1211.625 740.8125 C-1215.30143678 736.08793661 -1219.10193724 731.5500057 -1223.125 727.11328125 C-1225.76194684 724.14122242 -1228.21351753 721.03601903 -1230.6796875 717.921875 C-1237.52843824 709.29752221 -1244.47082219 700.74800904 -1251.625 692.375 C-1255.84865847 687.4307318 -1259.88573579 682.36411351 -1263.87548828 677.22998047 C-1266.99167695 673.2370524 -1270.20548574 669.34671977 -1273.5 665.5 C-1277.28188195 661.08422307 -1280.93267103 656.59082094 -1284.5 652 C-1288.57104431 646.76175352 -1292.7734098 641.66219038 -1297.08154297 636.61767578 C-1300.48423043 632.62852872 -1303.78179756 628.56907981 -1307.0390625 624.4609375 C-1309.16927994 621.78755705 -1311.33138116 619.14231033 -1313.5 616.5 C-1316.32043802 613.0634936 -1319.11295306 609.60856124 -1321.875 606.125 C-1324.94685667 602.26845124 -1328.11100296 598.4989149 -1331.3125 594.75 C-1335.68195229 589.62750799 -1339.88144191 584.39318158 -1344.02148438 579.08422852 C-1348.26080787 573.65014547 -1352.61212488 568.31489099 -1357 563 C-1359.25061208 560.27133768 -1361.50044084 557.54203041 -1363.75 554.8125 C-1364.34917236 554.08571045 -1364.94834473 553.3589209 -1365.56567383 552.61010742 C-1369.5638182 547.75617295 -1373.53969549 542.88483974 -1377.5 538 C-1381.95748719 532.50281628 -1386.43649703 527.02411719 -1390.9375 521.5625 C-1391.80628784 520.50808716 -1391.80628784 520.50808716 -1392.69262695 519.43237305 C-1395.66090711 515.83182575 -1398.63315503 512.23461171 -1401.609375 508.640625 C-1407.48997216 501.53113894 -1413.29745062 494.38306045 -1418.95776367 487.09692383 C-1422.6672563 482.35342629 -1426.57112816 477.79806662 -1430.51782227 473.25146484 C-1434.47239977 468.67328827 -1438.21891078 463.95931991 -1441.92578125 459.1796875 C-1445.02305512 455.20129261 -1448.22011392 451.32885993 -1451.5 447.5 C-1455.78754001 442.49278755 -1459.89197775 437.36812308 -1463.94091797 432.16674805 C-1467.72503984 427.31737087 -1471.6326358 422.58867356 -1475.58984375 417.87890625 C-1477.98113352 415.02253581 -1480.33769049 412.14054402 -1482.6875 409.25 C-1486.361952 404.74520031 -1490.13259951 400.3399446 -1494 396 C-1490.06287773 396 -1489.42665218 397.18504159 -1486.625 399.875 C-1482.34086441 403.84958822 -1477.90597309 407.45688042 -1473.24731445 410.98144531 C-1468.69369309 414.43915519 -1464.24181048 418.00967154 -1459.8125 421.625 C-1459.13026367 422.18179443 -1458.44802734 422.73858887 -1457.74511719 423.31225586 C-1456.4268081 424.38853413 -1455.10860716 425.46494488 -1453.79052734 426.54150391 C-1449.88390453 429.72369162 -1445.9411008 432.86070937 -1442 436 C-1436.74649289 440.18469015 -1431.51327273 444.3925528 -1426.30712891 448.63598633 C-1420.5757758 453.30690987 -1414.82716552 457.94899042 -1409 462.5 C-1402.49577985 467.57978847 -1396.09218059 472.77821619 -1389.6953125 477.9921875 C-1385.15485126 481.69242104 -1380.58142063 485.3506615 -1376 489 C-1370.74608515 493.18501493 -1365.51247942 497.39322896 -1360.3059082 501.63696289 C-1354.47158121 506.39185972 -1348.6174835 511.11475836 -1342.6875 515.75 C-1335.82364412 521.11548297 -1329.0876549 526.62798795 -1322.3671875 532.171875 C-1316.8194409 536.73299611 -1311.21045773 541.2031153 -1305.55249023 545.62573242 C-1299.5367378 550.3398547 -1293.61496324 555.1670285 -1287.69140625 559.99609375 C-1284.70356942 562.43116179 -1281.70152967 564.84737413 -1278.6875 567.25 C-1275.27032872 569.97457877 -1271.87935723 572.72864428 -1268.5 575.5 C-1261.76917061 581.01645598 -1254.97999132 586.45410234 -1248.1262207 591.81689453 C-1241.6789038 596.86293344 -1235.30264362 601.98784806 -1228.96020508 607.16503906 C-1224.69789025 610.63815043 -1220.39919079 614.05787201 -1216.0625 617.4375 C-1210.06155866 622.11713316 -1204.19036363 626.94358679 -1198.32983398 631.79736328 C-1193.24112617 636.00261087 -1188.08650766 640.11137956 -1182.88232422 644.17236328 C-1178.52559655 647.57515461 -1174.23482388 651.05120943 -1169.96484375 654.5625 C-1161.39807379 661.60553617 -1152.80845322 668.61770129 -1144.0625 675.4375 C-1137.96810456 680.19125143 -1131.99905875 685.08843286 -1126.04199219 690.01269531 C-1119.70831589 695.24787915 -1113.31895363 700.40442422 -1106.84765625 705.46875 C-1098.40627096 712.07620485 -1090.06690261 718.79908825 -1081.75683594 725.57080078 C-1076.27953252 730.02662821 -1070.75142197 734.41474912 -1065.18554688 738.75927734 C-1058.26039858 744.16979125 -1051.44850665 749.705147 -1044.68530273 755.31689453 C-1044.00282471 755.88263184 -1043.32034668 756.44836914 -1042.6171875 757.03125 C-1042.01503418 757.53205078 -1041.41288086 758.03285156 -1040.79248047 758.54882812 C-1037.21172083 761.82873685 -1037.21172083 761.82873685 -1032.77734375 763.03125 C-1028.60392499 761.48162616 -1025.20995038 759.02496342 -1021.5625 756.5 C-1019.67950466 755.22100689 -1017.79528528 753.94381489 -1015.91015625 752.66796875 C-1014.83523926 751.93884277 -1013.76032227 751.2097168 -1012.65283203 750.45849609 C-1006.13136121 746.05515606 -999.54305647 741.75167998 -992.9659729 737.43209839 C-990.49197253 735.80722773 -988.01872775 734.18121266 -985.5456543 732.55493164 C-974.18484969 725.08544748 -962.81571752 717.62866949 -951.43554688 710.1887207 C-945.25535476 706.14536616 -939.09836758 702.06962445 -932.95703125 697.9675293 C-928.01198189 694.67722606 -923.03694013 691.43312599 -918.0625 688.1875 C-916.37197064 687.0831558 -914.6814435 685.97880821 -912.99101257 684.87431335 C-911.81454446 684.10563329 -910.63804064 683.33700789 -909.46150208 682.56843567 C-902.5759533 678.07034995 -895.69311733 673.5681255 -888.8125 669.0625 C-888.19103088 668.65556915 -887.56956177 668.24863831 -886.92926025 667.82937622 C-879.67699052 663.07949963 -872.43733685 658.31234576 -865.23657227 653.48461914 C-860.43877438 650.27479069 -855.59606802 647.13633703 -850.75 644 C-843.29911988 639.17752444 -835.90376347 634.2760534 -828.52954102 629.33740234 C-817.96241426 622.2605977 -807.32241844 615.32083504 -796.59350586 608.49047852 C-789.22443513 603.79622594 -781.92338107 599.0149006 -774.67871094 594.13134766 C-765.71346475 588.08932456 -756.69075786 582.1400567 -747.625 576.25 C-738.50593064 570.32523334 -729.45237868 564.30775709 -720.41427612 558.26055908 C-710.12099212 551.37359894 -699.81749584 544.5305664 -689.31201172 537.96948242 C-682.09180092 533.45502739 -675.02175973 528.7296028 -667.953125 523.98242188 C-662.15756523 520.09188407 -656.35677937 516.20919564 -650.55279541 512.33123779 C-648.44258321 510.92019122 -646.33429722 509.50630129 -644.22607422 508.09228516 C-636.70490211 503.05970398 -629.12047074 498.15547809 -621.43148804 493.38298035 C-616.89576801 490.56725237 -612.41896276 487.68375788 -608 484.6875 C-599.66314497 479.08726326 -591.27406233 473.56873974 -582.875 468.0625 C-581.50073158 467.16129686 -580.12646401 466.26009242 -578.75219727 465.35888672 C-575.22008303 463.04292478 -571.68757773 460.72755997 -568.15496826 458.41235352 C-562.42993813 454.66020246 -556.70544937 450.90722714 -550.98175049 447.15304565 C-549.01207119 445.8614011 -547.0419415 444.57044583 -545.07177734 443.27954102 C-538.12298151 438.7236964 -531.19634376 434.13642469 -524.28709412 429.52082825 C-519.21863463 426.13804567 -514.11841416 422.80672341 -509 419.5 C-503.33067746 415.82598379 -497.67364381 412.13730505 -492.0625 408.375 C-484.80408814 403.51183335 -477.49684597 398.72357588 -470.1875 393.9375 C-469.56619202 393.53064972 -468.94488403 393.12379944 -468.30474854 392.70462036 C-461.46089197 388.22370533 -454.61414375 383.74722307 -447.765625 379.2734375 C-446.6039222 378.51440479 -445.44221972 377.7553716 -444.28051758 376.99633789 C-442.12968951 375.59130196 -439.97851318 374.18679892 -437.8269043 372.78295898 C-432.79281616 369.49506374 -427.77304392 366.18779378 -422.7734375 362.84765625 C-418.10545025 359.72946657 -413.41061563 356.65879208 -408.6875 353.625 C-403.51449184 350.28949939 -398.36239463 346.9276617 -393.25 343.5 C-386.17838346 338.76278766 -379.05989075 334.09784303 -371.9375 329.4375 C-360.21712866 321.76822813 -348.51153068 314.07678439 -336.8125 306.375 C-322.94001509 297.24333348 -309.05096186 288.13780571 -295.14599609 279.05566406 C-276.51070166 266.87894676 -257.90606604 254.65571664 -239.31225586 242.41577148 C-231.68371512 237.39446747 -224.05331493 232.37609038 -216.4140625 227.37109375 C-213.71353477 225.60157302 -211.01301256 223.83204388 -208.3125 222.0625 C-207.6586734 221.63413849 -207.0048468 221.20577698 -206.33120728 220.76443481 C-196.58318301 214.37592908 -186.88019388 207.92291564 -177.19598389 201.4382019 C-168.783705 195.80933622 -160.29190701 190.3226037 -151.734375 184.91772461 C-143.05501653 179.42803037 -134.51882333 173.73454696 -126 168 C-117.25413836 162.12728607 -108.43753898 156.36852209 -99.60913086 150.62084961 C-94.34569049 147.19127184 -89.09265095 143.74883155 -83.875 140.25 C-76.67923823 135.42830076 -69.43377855 130.6827447 -62.1875 125.9375 C-61.56658478 125.53080078 -60.94566956 125.12410156 -60.30593872 124.70507812 C-54.03686697 120.59927547 -47.76547366 116.49707317 -41.48692322 112.40577698 C-39.14941113 110.88254687 -36.81258957 109.35825887 -34.47573853 107.83401489 C-32.86837061 106.78641364 -31.25976863 105.74070662 -29.65112305 104.69506836 C-23.99410505 101.00594846 -18.43274518 97.22767528 -12.9675293 93.25878906 C-11 92 -11 92 -9 92 C-13.7173516 82.56529681 -20.46076248 78.18592416 -30 74 C-30.99 73.67 -31.98 73.34 -33 73 C-33.36398622 70.91835982 -33.71583287 68.83459438 -34.0625 66.75 C-34.35833984 65.00976562 -34.35833984 65.00976562 -34.66015625 63.234375 C-35.14071883 58.66074492 -34.61562653 56.88496314 -32 53.125 C-29.80160638 50.58985823 -27.44608011 48.8677987 -24.625 47.0625 C-11.88309476 38.85620673 -5.45985537 26.55225602 -2 12 C-1.21864717 8.01286814 -0.55119739 4.02519144 0 0 Z " fill="#3AB54A" transform="translate(1777,786)"/>
<path d="M0 0 C78.07374702 -0.37705593 156.1476038 -0.72684636 234.22201538 -0.93154907 C235.3774771 -0.93458633 236.53293883 -0.93762358 237.72341454 -0.94075288 C262.83450822 -1.00659633 287.94561155 -1.06754041 313.05672929 -1.12343725 C325.371155 -1.15087873 337.68557809 -1.17940291 350 -1.20849609 C351.83815284 -1.21281114 351.83815284 -1.21281114 353.71344007 -1.21721336 C393.43593716 -1.3109691 433.15774591 -1.47622128 472.87982595 -1.67853886 C513.69834759 -1.88606343 554.51648829 -2.02148109 595.33552856 -2.06612978 C601.10045034 -2.07246922 606.86537082 -2.07963323 612.63029099 -2.08729935 C613.76491361 -2.08878265 614.89953623 -2.09026596 616.06854136 -2.09179421 C634.33569047 -2.11779594 652.60166192 -2.21984063 670.8683307 -2.35030475 C689.23125587 -2.47983419 707.59301328 -2.52929454 725.95637931 -2.4970303 C736.86852464 -2.48029126 747.77639741 -2.52493153 758.68777125 -2.65754595 C765.97911598 -2.74011086 773.26766704 -2.74256852 780.5592055 -2.6802999 C784.71468963 -2.64709511 788.86210983 -2.6483238 793.01672418 -2.74743001 C816.91247751 -3.28453612 816.91247751 -3.28453612 823.63950679 2.12098047 C828.13363989 7.24603283 831.06869421 12.91359898 833.72818057 19.1507502 C835.7684393 23.72153018 838.39579805 27.92168414 841 32.1875 C848.07165187 44.57204553 854.57885933 57.26930843 861 70 C861.75676025 71.49732666 861.75676025 71.49732666 862.52880859 73.02490234 C885.09158019 117.99107178 900.12940075 167.85361854 907.3125 217.625 C907.45953369 218.63933105 907.60656738 219.65366211 907.75805664 220.69873047 C908.22166449 224.1285073 908.62225862 227.55963107 909 231 C909.08613556 231.78154449 909.17227112 232.56308899 909.26101685 233.36831665 C911.0107161 249.73008186 911.36262792 265.99192498 911.3125 282.4375 C911.31034485 283.71402435 911.3081897 284.99054871 911.30596924 286.30575562 C911.2534621 305.71898151 910.77599447 324.7643955 908 344 C907.84727631 345.06495697 907.84727631 345.06495697 907.69146729 346.15142822 C906.00962601 357.8058288 904.0720182 369.40917646 902 381 C901.78005371 382.24297852 901.56010742 383.48595703 901.33349609 384.76660156 C897.30080593 407.16215727 891.66611637 429.19504953 886.15917969 451.26327515 C884.51431867 457.87096805 882.9339476 464.4917643 881.37890625 471.12109375 C879.7626847 477.99922748 877.95238915 484.78210839 875.96044922 491.5625 C874.07430305 498.31311973 872.59364991 505.16184301 871.0625 512 C870.71085574 513.55858576 870.35888247 515.11709733 870.0065918 516.67553711 C869.4825042 518.99491605 868.9588519 521.31438668 868.43696594 523.63426208 C867.48962679 527.84466151 866.52875161 532.05138997 865.546875 536.25390625 C858.68449536 565.67428124 853.4324826 595.49839352 849.875 625.5 C849.78758545 626.21186462 849.7001709 626.92372925 849.61010742 627.65716553 C848.49726575 636.90746928 847.9140719 646.07228251 847.79992676 655.39099121 C847.73819177 660.35811963 847.61396949 665.32327972 847.4944458 670.28930664 C847.45681605 672.74133072 847.45339128 675.19414455 847.48602295 677.64624023 C847.73339143 696.56265346 847.73339143 696.56265346 843.37374878 702.04507446 C839.0074896 705.81376618 833.9560559 708.17731202 828.76547241 710.60845947 C823.96120896 713.02588633 819.63888536 716.13473992 815.23046875 719.19921875 C813.3977431 720.44261256 811.56375085 721.68414141 809.72851562 722.92382812 C807.88135734 724.17816002 806.0343528 725.43271836 804.1875 726.6875 C793.61024311 733.86581254 783.04176319 741.03763551 772.26000977 747.90600586 C768.76936345 750.14814421 765.31361309 752.43684118 761.8671875 754.74609375 C761.28759781 755.13433823 760.70800812 755.5225827 760.1108551 755.92259216 C757.76209042 757.49754069 755.41463091 759.07441591 753.06835938 760.65307617 C751.31514789 761.83193519 749.56004093 763.00792743 747.8046875 764.18359375 C746.78358887 764.86993896 745.76249023 765.55628418 744.71044922 766.26342773 C742.51048579 767.67293412 740.3647751 768.90012921 738 770 C738.63157192 763.96189484 739.79863644 758.2497453 741.3125 752.375 C741.64797852 751.05024658 741.64797852 751.05024658 741.99023438 749.69873047 C743.23869656 744.81247711 744.56892787 739.96143968 746 735.125 C748.51032463 726.50956588 750.37636619 717.75341248 752.32470703 708.99804688 C752.99064213 706.04154541 753.67672972 703.09056956 754.37109375 700.140625 C757.83750259 685.39531114 761.02456415 670.60270979 764.10864258 655.7734375 C764.42911455 654.23435737 764.74967052 652.69529472 765.0703125 651.15625 C765.22772415 650.39941925 765.3851358 649.6425885 765.5473175 648.86282349 C766.51525866 644.23486544 767.52914934 639.61942648 768.5737915 635.00820923 C770.44319176 626.748857 772.04275384 618.49077426 773.375 610.125 C773.69172455 608.17532676 774.00846835 606.22565654 774.32595825 604.27610779 C774.54688369 602.91827264 774.76715534 601.56033096 774.98678589 600.20228577 C775.76630096 595.39178121 776.57873207 590.58761411 777.40625 585.78515625 C780.43795564 568.12305896 783.16023208 550.42902923 785.6875 532.6875 C785.90415314 531.16846573 785.90415314 531.16846573 786.12518311 529.6187439 C787.10230404 522.74838414 788.05752169 515.87519151 789 509 C789.13029602 508.05681915 789.26059204 507.11363831 789.39483643 506.14187622 C792.62983712 482.60993653 794.69515237 458.97716625 796.71429443 435.31463623 C796.97478551 432.29252795 797.24459069 429.27144405 797.51806641 426.25048828 C800.03564917 398.05116594 800.28445417 369.87366462 800.30962753 341.58235931 C800.31246246 338.66364468 800.31799063 335.74494327 800.32363892 332.82623291 C800.35311448 311.80696097 800.23883725 290.92442787 798 270 C797.92447906 269.27409668 797.84895813 268.54819336 797.77114868 267.80029297 C790.36913601 198.34062796 759.70303998 112.60293343 721.07421875 54.16796875 C718.69716207 50.53747352 716.47596305 46.83308289 714.2890625 43.0859375 C713.01215859 40.93781539 713.01215859 40.93781539 711.3359375 38.8515625 C710 37 710 37 710 35 C479.99 35 249.98 35 13 35 C10.36 28.07 7.72 21.14 5 14 C2.93071864 9.03058901 2.93071864 9.03058901 0.8125 4.08203125 C0 2 0 2 0 0 Z " fill="#23B474" transform="translate(585,360)"/>
<path d="M0 0 C210.87 0 421.74 0 639 0 C639 9.24 639 18.48 639 28 C428.13 28 217.26 28 0 28 C0 18.76 0 9.52 0 0 Z " fill="#F8F9FC" transform="translate(603,723)"/>
<path d="M0 0 C210.54 0 421.08 0 638 0 C638 9.24 638 18.48 638 28 C427.46 28 216.92 28 0 28 C0 18.76 0 9.52 0 0 Z " fill="#FAFBFD" transform="translate(579,993)"/>
<path d="M0 0 C210.54 0 421.08 0 638 0 C638 9.24 638 18.48 638 28 C427.46 28 216.92 28 0 28 C0 18.76 0 9.52 0 0 Z " fill="#F8FAFC" transform="translate(628,858)"/>
<path d="M0 0 C210.54 0 421.08 0 638 0 C638 9.24 638 18.48 638 28 C427.46 28 216.92 28 0 28 C0 18.76 0 9.52 0 0 Z " fill="#F8FAFC" transform="translate(559,588)"/>
<path d="M0 0 C210.87 0 421.74 0 639 0 C639 8.91 639 17.82 639 27 C428.13 27 217.26 27 0 27 C0 18.09 0 9.18 0 0 Z " fill="#FEFEFE" transform="translate(505,1129)"/>
<path d="M0 0 C0.33 0 0.66 0 1 0 C1.01417969 0.98097656 1.02835938 1.96195313 1.04296875 2.97265625 C1.46928897 17.61940873 4.6487779 30.97567558 15 42 C21.32708801 47.61222309 28.90848632 51.57354856 37 54 C37.62044189 54.22002686 38.24088379 54.44005371 38.88012695 54.66674805 C43.03657516 55.69925379 45.37669673 55.30933444 49.25073242 53.38671875 C52.97877357 51.12298929 56.51761309 48.59951313 60.0625 46.0625 C61.32072365 45.18853108 62.58047864 44.31676245 63.84179688 43.44726562 C66.9126414 41.32331576 69.96155757 39.17013454 73 37 C73.66 37.33 74.32 37.66 75 38 C57.75536124 52.07576572 57.75536124 52.07576572 50 58 C50.66 58.99 51.32 59.98 52 61 C51.9375 63.5 51.9375 63.5 51 66 C47.37302213 68.55601984 43.35028333 70.21788082 39.3112793 72.00585938 C23.44035706 79.1140477 13.53838105 88.36705739 7.09765625 104.70703125 C3.48049962 115.55850113 2.46683364 126.65111315 2 138 C1.67 138 1.34 138 1 138 C0.98582031 136.94425781 0.97164062 135.88851562 0.95703125 134.80078125 C0.52761174 118.82454798 -1.5830216 101.37308015 -11 88 C-11.43828125 87.34128906 -11.8765625 86.68257812 -12.328125 86.00390625 C-16.74718826 80.09912345 -23.70814189 76.19928518 -30.75390625 74.23046875 C-33 73 -33 73 -33.9609375 70.1015625 C-34.09757812 68.95429687 -34.23421875 67.80703125 -34.375 66.625 C-34.52710938 65.48289062 -34.67921875 64.34078125 -34.8359375 63.1640625 C-35.10189967 58.03479214 -34.04793211 55.48663269 -30.6484375 51.56640625 C-28.77080554 49.78221095 -26.80599358 48.45818702 -24.625 47.0625 C-11.88309476 38.85620673 -5.45985537 26.55225602 -2 12 C-1.21864717 8.01286814 -0.55119739 4.02519144 0 0 Z " fill="#2E68C3" transform="translate(1777,786)"/>
<path d="M0 0 C20.79 0 41.58 0 63 0 C63 9.24 63 18.48 63 28 C46.17 28 29.34 28 12 28 C7.4588303 18.9176606 3.77123617 9.42809042 0 0 Z " fill="#F7FCFA" transform="translate(1326,450)"/>
<path d="M0 0 C1.65 0 3.3 0 5 0 C1.39654051 4.07696797 -2.92495684 6.61568699 -7.515625 9.4296875 C-17.73516842 15.78885044 -27.75192895 22.42481485 -37.75 29.125 C-39.41521509 30.23850484 -41.08057951 31.35178641 -42.74609375 32.46484375 C-45.97773423 34.62491734 -49.20857312 36.78618098 -52.4387207 38.94848633 C-57.30431198 42.20483561 -62.17518464 45.45322529 -67.0479126 48.69888306 C-70.97354673 51.31400228 -74.8937368 53.93710412 -78.8125 56.5625 C-86.9868376 62.02574572 -95.22620152 67.39033548 -103.4621582 72.76000977 C-115.89915651 80.85412974 -115.89915651 80.85412974 -128.16137695 89.20849609 C-131.40490865 91.25554483 -133.09329393 91.43447347 -136.875 91.25 C-137.84179688 91.21390625 -138.80859375 91.1778125 -139.8046875 91.140625 C-140.52914063 91.09421875 -141.25359375 91.0478125 -142 91 C-137.17458621 86.80353972 -131.71762084 83.70729492 -126.25 80.4375 C-119.19881614 76.18745624 -112.19428964 71.89455829 -105.3125 67.375 C-98.50742351 62.91402144 -91.57176244 58.70761579 -84.57910156 54.5480957 C-78.0552308 50.6581908 -71.6215621 46.64155524 -65.2109375 42.56835938 C-59.3727955 38.86061021 -53.5080541 35.19855427 -47.625 31.5625 C-46.75617188 31.02536377 -45.88734375 30.48822754 -44.9921875 29.93481445 C-41.41359919 27.7236354 -37.83389471 25.51427214 -34.25341797 23.30615234 C-31.52250063 21.62175619 -28.79232633 19.93616366 -26.0625 18.25 C-25.19214111 17.71294434 -24.32178223 17.17588867 -23.42504883 16.62255859 C-17.05767764 12.68301653 -10.76647696 8.63929735 -4.51953125 4.51171875 C-2 3 -2 3 0 3 C0 2.01 0 1.02 0 0 Z " fill="#2AB47A" transform="translate(1181,1220)"/>
<path d="M0 0 C3 1 3 1 4 3 C4.08649451 5.48099734 4.11565054 7.93344928 4.09765625 10.4140625 C4.0962413 11.14370209 4.09482635 11.87334167 4.09336853 12.62509155 C4.08776531 14.95843585 4.07521235 17.29168464 4.0625 19.625 C4.05748541 21.20572778 4.05292243 22.78645707 4.04882812 24.3671875 C4.03779484 28.24482854 4.02052811 32.12239807 4 36 C3.01 36.495 3.01 36.495 2 37 C1.34 36.67 0.68 36.34 0 36 C-0.33 36.66 -0.66 37.32 -1 38 C-1.59167969 37.66226563 -2.18335938 37.32453125 -2.79296875 36.9765625 C-3.97826172 36.30753906 -3.97826172 36.30753906 -5.1875 35.625 C-5.96480469 35.18414063 -6.74210937 34.74328125 -7.54296875 34.2890625 C-9.97122589 32.907107 -9.97122589 32.907107 -12.71484375 32.234375 C-15 31 -15 31 -15.9609375 28.1015625 C-16.09757812 26.95429687 -16.23421875 25.80703125 -16.375 24.625 C-16.52710938 23.48289062 -16.67921875 22.34078125 -16.8359375 21.1640625 C-17.10132564 16.04586268 -16.05685591 13.50154319 -12.66796875 9.5859375 C-10.03898385 7.08624694 -7.05611884 5.214918 -3.98828125 3.296875 C-1.8849225 2.02222373 -1.8849225 2.02222373 0 0 Z " fill="#779CD7" transform="translate(1759,828)"/>
<path d="M0 0 C0.33 0.66 0.66 1.32 1 2 C1.99 2.33 2.98 2.66 4 3 C5.58965571 5.21701147 6.72327486 7.57862473 8 10 C8.66 10 9.32 10 10 10 C10.33 9.01 10.66 8.02 11 7 C10.79718436 8.94616706 10.59418192 10.89231479 10.39038086 12.83837891 C10.21060939 14.5567097 10.03176368 16.27513755 9.85375977 17.99365234 C9.42194788 22.13074966 8.97717016 26.26362115 8.45703125 30.390625 C6.8646765 43.23009507 6.38638131 56.0735033 6 69 C5.67 69 5.34 69 5 69 C4.95512451 67.84814209 4.91024902 66.69628418 4.86401367 65.50952148 C3.81794385 36.63434432 3.81794385 36.63434432 0.5859375 7.9453125 C0 4 0 4 0 0 Z " fill="#4176C8" transform="translate(1672,822)"/>
<path d="M0 0 C0.66 0.66 1.32 1.32 2 2 C1.525625 2.53625 1.05125 3.0725 0.5625 3.625 C-1.22335686 5.97011748 -1.22335686 5.97011748 -1.4375 9.125 C-1.7159375 10.548125 -1.7159375 10.548125 -2 12 C-3.9375 13.125 -3.9375 13.125 -6 14 C-7.09166275 15.93330603 -7.09166275 15.93330603 -8 18 C-9 19 -10 20 -11 21 C-11.495 22.485 -11.495 22.485 -12 24 C-11.34 24 -10.68 24 -10 24 C-10.495 26.475 -10.495 26.475 -11 29 C-11.763125 28.979375 -12.52625 28.95875 -13.3125 28.9375 C-16.10185786 28.87057159 -16.10185786 28.87057159 -19 30 C-18.67 31.98 -18.34 33.96 -18 36 C-19.32 36 -20.64 36 -22 36 C-22 35.01 -22 34.02 -22 33 C-22.99 33.495 -22.99 33.495 -24 34 C-24.62023105 36.17080869 -25.06759336 38.34641595 -25.5 40.5625 C-27.60507944 43.98325409 -30.03971785 44.31214829 -33.80859375 45.32421875 C-36.25622601 45.96507326 -36.25622601 45.96507326 -39 48 C-39.33 48.99 -39.66 49.98 -40 51 C-41.32 50.67 -42.64 50.34 -44 50 C-44 50.66 -44 51.32 -44 52 C-46.475 52.495 -46.475 52.495 -49 53 C-45.76661838 49.62679647 -42.51991585 46.84905047 -38.6875 44.1875 C-22.70020881 32.3151643 -10.10445586 17.07304611 0 0 Z " fill="#6C94D3" transform="translate(1649,579)"/>
<path d="M0 0 C0.33 0 0.66 0 1 0 C1.02505615 0.76965088 1.0501123 1.53930176 1.07592773 2.33227539 C1.72067871 22.68263922 1.72067871 22.68263922 3 43 C1.68 42.67 0.36 42.34 -1 42 C-1.28875 42.639375 -1.5775 43.27875 -1.875 43.9375 C-3 46 -3 46 -5 47 C-5 48.32 -5 49.64 -5 51 C-6.44286917 53.24675342 -8.19379986 55.01317985 -10 57 C-11.38334406 54.23331187 -10.60286319 53.07057497 -9.70703125 50.13671875 C-9.40804932 49.11755371 -9.10906738 48.09838867 -8.80102539 47.04833984 C-8.47481201 45.9392627 -8.14859863 44.83018555 -7.8125 43.6875 C-3.71336112 29.25206904 -1.69494204 14.8876987 0 0 Z " fill="#487BCA" transform="translate(1674,491)"/>
<path d="M0 0 C0.33 0 0.66 0 1 0 C1.07347656 1.57587891 1.07347656 1.57587891 1.1484375 3.18359375 C1.53376426 10.65875491 2.05427553 17.73596197 4 25 C3.01 24.01 2.02 23.02 1 22 C-1.22656164 26.74354436 -2.46148032 30.72250715 -3 36 C-4 35 -5 34 -6 33 C-7.32 33.66 -8.64 34.32 -10 35 C-9.731875 35.886875 -9.46375 36.77375 -9.1875 37.6875 C-9 41 -9 41 -11.4375 43.875 C-12.283125 44.57625 -13.12875 45.2775 -14 46 C-14.495 44.515 -14.495 44.515 -15 43 C-15.66 43 -16.32 43 -17 43 C-15.55708241 39.86538592 -13.77282985 37.3044082 -11.6875 34.5625 C-4.32505688 24.07752384 -1.95854579 12.40412336 0 0 Z M-11 37 C-11.99 38.485 -11.99 38.485 -13 40 C-12.01 40 -11.02 40 -10 40 C-10.33 39.01 -10.66 38.02 -11 37 Z " fill="#4A7CCA" transform="translate(1777,786)"/>
<path d="M0 0 C-0.66515625 0.67417969 -1.3303125 1.34835937 -2.015625 2.04296875 C-4.56544262 5.84259855 -4.25344303 7.82346628 -3.75 12.3125 C-3.62109375 13.56675781 -3.4921875 14.82101562 -3.359375 16.11328125 C-3.24078125 17.06589844 -3.1221875 18.01851562 -3 19 C-11.4 18.01176471 -11.4 18.01176471 -15 16 C-16.82123104 12.48762585 -15.94124827 8.6963183 -15 5 C-12.12890625 2.96875 -12.12890625 2.96875 -8.5625 1.5 C-6.80099609 0.74203125 -6.80099609 0.74203125 -5.00390625 -0.03125 C-2 -1 -2 -1 0 0 Z " fill="#AFC5E7" transform="translate(1747,839)"/>
<path d="M0 0 C4 0 4 0 5.66796875 1.4609375 C6.42013672 2.40839844 6.42013672 2.40839844 7.1875 3.375 C7.69667969 4.00148438 8.20585938 4.62796875 8.73046875 5.2734375 C11.18360496 8.60970274 11.47677414 10.86795743 11 15 C7.31744737 20.96827494 1.30878912 25.05715202 -5 28 C-7.33984375 27.69140625 -7.33984375 27.69140625 -9 27 C-7.68 26.34 -6.36 25.68 -5 25 C-5 23.35 -5 21.7 -5 20 C-3.68 19.34 -2.36 18.68 -1 18 C-1.33 18.99 -1.66 19.98 -2 21 C-0.04105639 20.88693303 -0.04105639 20.88693303 2 20 C3.29660434 17.50965614 3.29660434 17.50965614 4 15 C4.66 15 5.32 15 6 15 C5.67 13.68 5.34 12.36 5 11 C4.34 11 3.68 11 3 11 C3 9.35 3 7.7 3 6 C3.66 6 4.32 6 5 6 C5 5.34 5 4.68 5 4 C4.34 4 3.68 4 3 4 C1.375 2 1.375 2 0 0 Z " fill="#1C5BBC" transform="translate(1813,662)"/>
<path d="M0 0 C0.66 0 1.32 0 2 0 C2.24492188 0.86238281 2.48984375 1.72476563 2.7421875 2.61328125 C6.17471794 13.8222686 11.30822326 23.7779998 17 34 C16.34 34.66 15.68 35.32 15 36 C14.01 35.67 13.02 35.34 12 35 C11.67 33.35 11.34 31.7 11 30 C10.01 31.32 9.02 32.64 8 34 C7.40852963 30.377244 6.9982115 27.05186664 7.125 23.375 C6.98740103 19.65982789 6.15815952 17.96746934 4 15 C2.68 15.99 1.36 16.98 0 18 C0 12.06 0 6.12 0 0 Z " fill="#3A70C5" transform="translate(1681,557)"/>
<path d="M0 0 C0.92039062 0.29197266 0.92039062 0.29197266 1.859375 0.58984375 C1.01375 1.29109375 0.168125 1.99234375 -0.703125 2.71484375 C-7.1411633 8.08684324 -13.3297976 13.53233028 -19.140625 19.58984375 C-20.13817703 20.59228574 -21.13784338 21.59263313 -22.140625 22.58984375 C-22.800625 23.24984375 -23.460625 23.90984375 -24.140625 24.58984375 C-23.63458508 22.42110123 -23.14078687 20.59016748 -22.140625 18.58984375 C-22.0375 17.78546875 -21.934375 16.98109375 -21.828125 16.15234375 C-21.140625 13.58984375 -21.140625 13.58984375 -19.265625 11.77734375 C-17.140625 10.58984375 -17.140625 10.58984375 -14.140625 10.58984375 C-14.140625 9.92984375 -14.140625 9.26984375 -14.140625 8.58984375 C-14.800625 8.25984375 -15.460625 7.92984375 -16.140625 7.58984375 C-15.150625 7.25984375 -14.160625 6.92984375 -13.140625 6.58984375 C-12.645625 5.76484375 -12.150625 4.93984375 -11.640625 4.08984375 C-10.140625 1.58984375 -10.140625 1.58984375 -7.140625 0.58984375 C-6.810625 1.24984375 -6.480625 1.90984375 -6.140625 2.58984375 C-5.563125 2.07421875 -4.985625 1.55859375 -4.390625 1.02734375 C-2.140625 -0.41015625 -2.140625 -0.41015625 0 0 Z " fill="#1F5EBD" transform="translate(1742.140625,720.41015625)"/>
<path d="M0 0 C1.32 0 2.64 0 4 0 C4.28875 0.78375 4.5775 1.5675 4.875 2.375 C6.95231642 7.22207165 10.29960716 8.08502514 15 10 C14 12 14 12 13 13 C13.99 13.33 14.98 13.66 16 14 C16 14.66 16 15.32 16 16 C16.99 16.33 17.98 16.66 19 17 C19.5625 18.875 19.5625 18.875 20 21 C20.66 21.99 21.32 22.98 22 24 C21.625 26.1875 21.625 26.1875 21 28 C20.443125 27.31035156 19.88625 26.62070312 19.3125 25.91015625 C9.51572114 13.61188506 9.51572114 13.61188506 -2 3 C-1.34 2.67 -0.68 2.34 0 2 C0 1.34 0 0.68 0 0 Z " fill="#5C88CF" transform="translate(1623,720)"/>
<path d="M0 0 C2.375 -0.1875 2.375 -0.1875 5 0 C6.32 0 7.64 0 9 0 C11.25 1 11.25 1 13 2 C12.48614746 2.28198242 11.97229492 2.56396484 11.44287109 2.85449219 C9.08538473 4.15023418 6.73018666 5.45008302 4.375 6.75 C3.56675781 7.1934375 2.75851562 7.636875 1.92578125 8.09375 C-2.52518685 10.55444781 -6.81844463 13.10403609 -11 16 C-11.33 15.34 -11.66 14.68 -12 14 C-11.01 13.01 -10.02 12.02 -9 11 C-9.99 11 -10.98 11 -12 11 C-11.67 10.01 -11.34 9.02 -11 8 C-8.36 8 -5.72 8 -3 8 C-2.87625 7.236875 -2.7525 6.47375 -2.625 5.6875 C-2 3 -2 3 0 0 Z " fill="#1757BC" transform="translate(1756,704)"/>
<path d="M0 0 C-0.33 2.31 -0.66 4.62 -1 7 C-1.59167969 7.01417969 -2.18335938 7.02835938 -2.79296875 7.04296875 C-7.28332158 7.31400147 -9.40722177 7.49550789 -12.9375 10.5 C-13.9584375 11.7375 -13.9584375 11.7375 -15 13 C-15.99 13.495 -15.99 13.495 -17 14 C-17 13.34 -17 12.68 -17 12 C-18.32 12.33 -19.64 12.66 -21 13 C-21 13.66 -21 14.32 -21 15 C-26.70040486 16.94331984 -26.70040486 16.94331984 -29.3125 17.4375 C-29.869375 17.623125 -30.42625 17.80875 -31 18 C-31.33 18.99 -31.66 19.98 -32 21 C-32.66 20.67 -33.32 20.34 -34 20 C-35.73307549 21.01368566 -37.46472917 22.03017508 -39.1796875 23.07421875 C-41.53283978 24.27099362 -43.40322854 24.31476018 -46 24 C-42.82789323 21.88526215 -39.53777443 20.23744273 -36.125 18.5625 C-29.29572319 15.17590297 -22.51088448 11.70862304 -15.75 8.1875 C-14.84523926 7.71965088 -13.94047852 7.25180176 -13.00830078 6.76977539 C-12.15478027 6.3236792 -11.30125977 5.87758301 -10.421875 5.41796875 C-9.28637207 4.82665161 -9.28637207 4.82665161 -8.12792969 4.22338867 C-5.93268371 3.0237888 -5.93268371 3.0237888 -3.84863281 1.34887695 C-2 0 -2 0 0 0 Z " fill="#86A7DD" transform="translate(1600,632)"/>
<path d="M0 0 C2.31 0.33 4.62 0.66 7 1 C7.66 2.98 8.32 4.96 9 7 C11.97 7.495 11.97 7.495 15 8 C14.38722388 10.96175123 13.74627478 12.38058783 12 15 C12.639375 15.165 13.27875 15.33 13.9375 15.5 C16 17 16 17 16.55859375 18.80859375 C17.39150413 24.41274381 17.39150413 24.41274381 15 28 C14.67128906 26.98292969 14.67128906 26.98292969 14.3359375 25.9453125 C11.16405149 16.635956 7.19550214 8.7722373 0 2 C0 1.34 0 0.68 0 0 Z " fill="#447AC6" transform="translate(1759,864)"/>
<path d="M0 0 C0.66 0.66 1.32 1.32 2 2 C1.525625 2.53625 1.05125 3.0725 0.5625 3.625 C-1.22335686 5.97011748 -1.22335686 5.97011748 -1.4375 9.125 C-1.623125 10.07375 -1.80875 11.0225 -2 12 C-3.9375 13.125 -3.9375 13.125 -6 14 C-7.09166275 15.93330603 -7.09166275 15.93330603 -8 18 C-9 19 -10 20 -11 21 C-11.33 21.99 -11.66 22.98 -12 24 C-11.34 24 -10.68 24 -10 24 C-10.33 25.65 -10.66 27.3 -11 29 C-13.31 28.67 -15.62 28.34 -18 28 C-16.01194651 22.28434621 -12.99167897 18.34646543 -9.140625 13.7109375 C-5.72060349 9.37974237 -2.86525419 4.70976157 0 0 Z " fill="#5886CD" transform="translate(1649,579)"/>
<path d="M0 0 C4.03049633 1.67692183 7.06455966 4.4759998 10.3125 7.3125 C14.73339662 11.11964151 19.15665219 14.73355613 24 18 C22.68 18.33 21.36 18.66 20 19 C20 20.32 20 21.64 20 23 C20.66 23 21.32 23 22 23 C21.67 23.99 21.34 24.98 21 26 C20.47792969 25.35675781 19.95585937 24.71351562 19.41796875 24.05078125 C14.53097931 18.05116725 9.58463302 12.11226036 4.54370117 6.24145508 C1.10765747 2.21531495 1.10765747 2.21531495 0 0 Z " fill="#48B959" transform="translate(283,1181)"/>
<path d="M0 0 C4.6393176 1.63952583 8.63855858 4.06871052 12.8125 6.625 C13.50537109 7.04523437 14.19824219 7.46546875 14.91210938 7.8984375 C16.61010748 8.9289467 18.30533614 9.96401681 20 11 C17.15386732 13.84613268 14.95999656 13.79864424 11 14 C8.0625 12.875 8.0625 12.875 6 11 C5.6875 8.3125 5.6875 8.3125 6 6 C4.02 6 2.04 6 0 6 C0 5.34 0 4.68 0 4 C-0.99 3.34 -1.98 2.68 -3 2 C-2.01 2 -1.02 2 0 2 C0 1.34 0 0.68 0 0 Z " fill="#225FBE" transform="translate(1731,626)"/>
<path d="M0 0 C0.33 0.66 0.66 1.32 1 2 C1.99 2.33 2.98 2.66 4 3 C5.58965571 5.21701147 6.72327486 7.57862473 8 10 C8.66 10 9.32 10 10 10 C10.33 9.01 10.66 8.02 11 7 C10.67 10.63 10.34 14.26 10 18 C8.02 18 6.04 18 4 18 C0.96089654 12.053928 0.34773428 6.63093294 0 0 Z " fill="#326CC3" transform="translate(1672,822)"/>
<path d="M0 0 C0.66 0.33 1.32 0.66 2 1 C0.95058166 1.85424139 -0.09891499 2.70838659 -1.1484375 3.5625 C-1.8197168 4.10890137 -2.49099609 4.65530273 -3.18261719 5.21826172 C-4.64798073 6.40915517 -6.11478709 7.59827541 -7.58300781 8.78564453 C-10.79838176 11.38683793 -14.00772331 13.98853876 -17.1484375 16.6796875 C-18.00695313 17.40414062 -18.86546875 18.12859375 -19.75 18.875 C-20.48734375 19.51179687 -21.2246875 20.14859375 -21.984375 20.8046875 C-24 22 -24 22 -26.265625 21.6953125 C-26.83796875 21.46585938 -27.4103125 21.23640625 -28 21 C-26.51275021 16.24298781 -22.54280399 14.56578273 -18.5 12.1875 C-17.05078422 11.31073749 -15.60286672 10.43182547 -14.15625 9.55078125 C-13.44855469 9.12104004 -12.74085937 8.69129883 -12.01171875 8.24853516 C-7.88049009 5.6845663 -3.93312795 2.85529962 0 0 Z " fill="#47BA57" transform="translate(1850,823)"/>
<path d="M0 0 C4.40958108 0.66607439 8.26572186 2.26624729 12.3125 4.0625 C13.28026367 4.48499023 13.28026367 4.48499023 14.26757812 4.91601562 C15.84698358 5.6062743 17.42376493 6.30253198 19 7 C17.6875 8.5 17.6875 8.5 16 10 C15.01 10 14.02 10 13 10 C12.67 9.34 12.34 8.68 12 8 C11.01 8.66 10.02 9.32 9 10 C9 9.01 9 8.02 9 7 C8.01 7.66 7.02 8.32 6 9 C4.68 9 3.36 9 2 9 C1.34 6.03 0.68 3.06 0 0 Z " fill="#1456BA" transform="translate(1751,638)"/>
<path d="M0 0 C4.66666667 4.66666667 9.33333333 9.33333333 14 14 C12 15 12 15 9.0625 14.5 C5.97047565 13.75153105 5.97047565 13.75153105 3 15 C1.4375 13.9375 1.4375 13.9375 0 12 C0.2602896 9.65739357 0.59952556 7.32275177 1 5 C0.64025105 2.18762459 0.64025105 2.18762459 0 0 Z " fill="#2561BF" transform="translate(1704,601)"/>
<path d="M0 0 C2.05078125 0.03255208 4.1015625 0.06510417 6.15234375 0.09765625 C6.48234375 1.08765625 6.81234375 2.07765625 7.15234375 3.09765625 C5.05150166 4.10462193 2.94654886 5.10301515 0.83984375 6.09765625 C-0.33191406 6.65453125 -1.50367188 7.21140625 -2.7109375 7.78515625 C-5.84765625 9.09765625 -5.84765625 9.09765625 -8.84765625 9.09765625 C-9.22828846 6.77157055 -9.5603557 4.43710361 -9.84765625 2.09765625 C-9.51765625 1.76765625 -9.18765625 1.43765625 -8.84765625 1.09765625 C-6.84765625 1.09765625 -4.84765625 1.09765625 -2.84765625 1.09765625 C-1.84765625 0.09765625 -1.84765625 0.09765625 0 0 Z " fill="#1355BA" transform="translate(1777.84765625,695.90234375)"/>
<path d="M0 0 C1.32286246 4.96073422 1.08893197 9.91111512 1 15 C-1.31 14.34 -3.62 13.68 -6 13 C-7.38087404 9.16423878 -6.94284862 5.91644812 -6 2 C-3.83076342 0.3905664 -2.68076871 0 0 0 Z " fill="#C8D7EF" transform="translate(1738,842)"/>
<path d="M0 0 C1.65 0 3.3 0 5 0 C1.31597327 4.20318497 -3.22292903 6.79832725 -7.9375 9.6875 C-15.79619532 14.56972482 -23.45967226 19.63919249 -31 25 C-31.33 24.01 -31.66 23.02 -32 22 C-31.22305786 21.50971313 -31.22305786 21.50971313 -30.43041992 21.00952148 C-28.88703428 20.03546376 -27.34374866 19.06124757 -25.80053711 18.08691406 C-24.05559682 16.98546432 -22.31031558 15.88455455 -20.56469727 14.78417969 C-16.81857897 12.42101186 -13.07365253 10.05752643 -9.359375 7.64453125 C-7.91304687 6.70673828 -7.91304687 6.70673828 -6.4375 5.75 C-5.61121094 5.20859375 -4.78492188 4.6671875 -3.93359375 4.109375 C-2 3 -2 3 0 3 C0 2.01 0 1.02 0 0 Z " fill="#2CB17E" transform="translate(1181,1220)"/>
<path d="M0 0 C2.4375 0.6875 2.4375 0.6875 5 2 C6 4.4375 6 4.4375 6 7 C4.9375 8.75 4.9375 8.75 3 10 C-0.1875 10.6875 -0.1875 10.6875 -3 11 C-3.33 9.68 -3.66 8.36 -4 7 C-3.34 7 -2.68 7 -2 7 C-1.855625 6.030625 -1.71125 5.06125 -1.5625 4.0625 C-1 1 -1 1 0 0 Z " fill="#1555BA" transform="translate(1823,844)"/>
<path d="M0 0 C1.98 0.495 1.98 0.495 4 1 C4.99 6.28 5.98 11.56 7 17 C5.35 16.67 3.7 16.34 2 16 C1.34 13.36 0.68 10.72 0 8 C0.66 8 1.32 8 2 8 C2 7.34 2 6.68 2 6 C1.01 6.33 0.02 6.66 -1 7 C-0.67 4.69 -0.34 2.38 0 0 Z " fill="#3A70C6" transform="translate(1674,535)"/>
<path d="M0 0 C1.32 0 2.64 0 4 0 C4 2.64 4 5.28 4 8 C4.66 8 5.32 8 6 8 C5.34 15.26 4.68 22.52 4 30 C3.67 30 3.34 30 3 30 C2.95101563 28.83984375 2.90203125 27.6796875 2.8515625 26.484375 C2.43586479 17.52719343 1.77971033 8.81215795 0 0 Z " fill="#4E81CB" transform="translate(1775,894)"/>
<path d="M0 0 C2.64 0.33 5.28 0.66 8 1 C8.87867729 4.73437848 9.08912219 8.16774573 9 12 C8.01 12.33 7.02 12.66 6 13 C4.99491199 11.21118264 3.99607264 9.41885304 3 7.625 C2.1646875 6.12839844 2.1646875 6.12839844 1.3125 4.6015625 C0 2 0 2 0 0 Z " fill="#4C7DCB" transform="translate(1647,751)"/>
<path d="M0 0 C3.94139078 1.66751148 6.7892812 4.22710649 10 7 C9.67 8.65 9.34 10.3 9 12 C7.35 12.33 5.7 12.66 4 13 C3.896875 11.906875 3.79375 10.81375 3.6875 9.6875 C2.99088659 5.951119 2.68320706 5.33322353 0 3 C0 2.01 0 1.02 0 0 Z " fill="#2461C0" transform="translate(1788,826)"/>
<path d="M0 0 C1.32 0.33 2.64 0.66 4 1 C2.35 5.62 0.7 10.24 -1 15 C-1.66 15 -2.32 15 -3 15 C-3.08107583 13.06318839 -3.13922475 11.1254066 -3.1875 9.1875 C-3.22230469 8.10855469 -3.25710938 7.02960937 -3.29296875 5.91796875 C-3 3 -3 3 -1.73828125 1.05078125 C-1.16464844 0.70402344 -0.59101562 0.35726562 0 0 Z " fill="#2E68C3" transform="translate(1692,784)"/>
<path d="M0 0 C0.99 0.33 1.98 0.66 3 1 C3 1.66 3 2.32 3 3 C3.99 3.33 4.98 3.66 6 4 C7.16796875 5.84765625 7.16796875 5.84765625 8.1875 8.0625 C8.53167969 8.79597656 8.87585937 9.52945313 9.23046875 10.28515625 C9.48441406 10.85105469 9.73835938 11.41695312 10 12 C9.01 12.495 9.01 12.495 8 13 C7.01 12.67 6.02 12.34 5 12 C4.67 10.35 4.34 8.7 4 7 C3.01 8.32 2.02 9.64 1 11 C0.4254048 7.26513121 0 3.78706732 0 0 Z " fill="#2E67C2" transform="translate(1688,580)"/>
<path d="M0 0 C4.62 1.32 9.24 2.64 14 4 C13.67 4.66 13.34 5.32 13 6 C10.87506859 6.02693575 8.75004088 6.04636628 6.625 6.0625 C5.44164062 6.07410156 4.25828125 6.08570313 3.0390625 6.09765625 C0 6 0 6 -2 5 C-1.34 3.35 -0.68 1.7 0 0 Z " fill="#1255BA" transform="translate(1780,649)"/>
<path d="M0 0 C0.33 0.99 0.66 1.98 1 3 C3.00016466 4.20882096 3.00016466 4.20882096 5 5 C0.17375515 8.84129692 -2.83543524 10.62257767 -9 11 C-8.67 10.01 -8.34 9.02 -8 8 C-4.9375 6.8125 -4.9375 6.8125 -2 6 C-1.855625 5.195625 -1.71125 4.39125 -1.5625 3.5625 C-1 1 -1 1 0 0 Z " fill="#1A59BC" transform="translate(1802,857)"/>
<path d="M0 0 C1 3 1 3 0 6 C-0.103125 6.99 -0.20625 7.98 -0.3125 9 C-1 12 -1 12 -3.0625 13.875 C-4.0215625 14.431875 -4.0215625 14.431875 -5 15 C-5.33 14.01 -5.66 13.02 -6 12 C-6.66 12 -7.32 12 -8 12 C-6.59023295 8.96147295 -4.91129772 6.4060405 -2.875 3.75 C-2.06675781 2.69039062 -2.06675781 2.69039062 -1.2421875 1.609375 C-0.83226562 1.07828125 -0.42234375 0.5471875 0 0 Z M-2 6 C-2.99 7.485 -2.99 7.485 -4 9 C-3.01 9 -2.02 9 -1 9 C-1.33 8.01 -1.66 7.02 -2 6 Z " fill="#5A86CF" transform="translate(1768,817)"/>
<path d="M0 0 C1.63936904 4.06187616 0.31657878 7.66491764 -0.8125 11.6875 C-0.99103516 12.37650391 -1.16957031 13.06550781 -1.35351562 13.77539062 C-1.83337341 15.53717894 -2.41008605 17.27194818 -3 19 C-3.66 19.33 -4.32 19.66 -5 20 C-5 18.68 -5 17.36 -5 16 C-5.66 15.67 -6.32 15.34 -7 15 C-6.57692877 13.68277821 -6.13602514 12.37127336 -5.6875 11.0625 C-5.44386719 10.33160156 -5.20023438 9.60070312 -4.94921875 8.84765625 C-4 7 -4 7 -1 6 C-0.67 4.02 -0.34 2.04 0 0 Z " fill="#4A7CCA" transform="translate(1687,808)"/>
<path d="M0 0 C0.33 0.66 0.66 1.32 1 2 C0 4 0 4 -2.8125 5.0625 C-6 6 -6 6 -8.3125 6.4375 C-8.869375 6.623125 -9.42625 6.80875 -10 7 C-10.33 7.99 -10.66 8.98 -11 10 C-11.66 9.67 -12.32 9.34 -13 9 C-14.73307549 10.01368566 -16.46472917 11.03017508 -18.1796875 12.07421875 C-20.53283978 13.27099362 -22.40322854 13.31476018 -25 13 C-22.7920431 11.52802873 -20.7729339 10.32763538 -18.41796875 9.16015625 C-17.73283203 8.81919922 -17.04769531 8.47824219 -16.34179688 8.12695312 C-15.63087891 7.77568359 -14.91996094 7.42441406 -14.1875 7.0625 C-13.13852539 6.54139648 -13.13852539 6.54139648 -12.06835938 6.00976562 C-10.69487871 5.32752219 -9.32102794 4.64602326 -7.94677734 3.96533203 C-5.29453104 2.65018507 -2.64703612 1.3255958 0 0 Z " fill="#B7C9E7" transform="translate(1579,643)"/>
<path d="M0 0 C0.66 0.33 1.32 0.66 2 1 C1.67 2.32 1.34 3.64 1 5 C0.34 5 -0.32 5 -1 5 C-0.67 6.98 -0.34 8.96 0 11 C-1.32 11 -2.64 11 -4 11 C-4 10.01 -4 9.02 -4 8 C-4.99 8.495 -4.99 8.495 -6 9 C-6.65213292 11.02463255 -6.65213292 11.02463255 -7 13 C-7.66 12.34 -8.32 11.68 -9 11 C-6.62245212 6.50907623 -3.6393937 3.47764287 0 0 Z " fill="#6690D2" transform="translate(1631,604)"/>
<path d="M0 0 C1.65 0.33 3.3 0.66 5 1 C5 2.32 5 3.64 5 5 C5.99 5 6.98 5 8 5 C8 4.34 8 3.68 8 3 C9.65 3.33 11.3 3.66 13 4 C12.67 5.32 12.34 6.64 12 8 C7.15311808 7.21824485 2.6233633 5.60155722 -2 4 C-1.34 2.68 -0.68 1.36 0 0 Z " fill="#9EB8E2" transform="translate(1579,697)"/>
<path d="M0 0 C0.66 0.33 1.32 0.66 2 1 C1.125 6.75 1.125 6.75 0 9 C0.66 9.66 1.32 10.32 2 11 C1.34 12.98 0.68 14.96 0 17 C-1.32 16.01 -2.64 15.02 -4 14 C-3.36843005 8.94744036 -1.86540627 4.70406799 0 0 Z " fill="#497BC9" transform="translate(1662,549)"/>
<path d="M0 0 C2 1 2 1 4 3 C4.99 3 5.98 3 7 3 C6.67 5.31 6.34 7.62 6 10 C2.74456771 9.65120368 1.98126893 8.97866739 -0.25 6.4375 C-0.8275 5.633125 -1.405 4.82875 -2 4 C-1.34 2.68 -0.68 1.36 0 0 Z " fill="#41B752" transform="translate(313,1212)"/>
<path d="M0 0 C0.85851563 0.76763672 0.85851563 0.76763672 1.734375 1.55078125 C-0.05273086 2.41444947 -1.8454715 3.26646719 -3.640625 4.11328125 C-4.63835937 4.58894531 -5.63609375 5.06460938 -6.6640625 5.5546875 C-7.52257813 5.88339844 -8.38109375 6.21210937 -9.265625 6.55078125 C-9.925625 6.22078125 -10.585625 5.89078125 -11.265625 5.55078125 C-10.935625 3.90078125 -10.605625 2.25078125 -10.265625 0.55078125 C-2.82331731 -1.80594952 -2.82331731 -1.80594952 0 0 Z " fill="#1A58BC" transform="translate(1802.265625,689.44921875)"/>
<path d="M0 0 C0.66 0.66 1.32 1.32 2 2 C4.60280568 1.67958603 4.60280568 1.67958603 7 1 C7 1.66 7 2.32 7 3 C5.04775792 4.28406399 3.03659238 5.47941678 1 6.625 C-0.11375 7.25664063 -1.2275 7.88828125 -2.375 8.5390625 C-3.24125 9.02117187 -4.1075 9.50328125 -5 10 C-5.33 9.01 -5.66 8.02 -6 7 C-5.34 6.38125 -4.68 5.7625 -4 5.125 C-1.7715451 3.24362573 -1.7715451 3.24362573 -2 1 C-1.34 0.67 -0.68 0.34 0 0 Z " fill="#1959BD" transform="translate(805,1449)"/>
<path d="M0 0 C2.31 0.33 4.62 0.66 7 1 C7.28875 1.9075 7.5775 2.815 7.875 3.75 C8.76531776 6.32202908 9.71494413 8.61346766 11 11 C10.34 11.66 9.68 12.32 9 13 C7.87064804 11.58680023 6.74669374 10.16928595 5.625 8.75 C4.99851562 7.96109375 4.37203125 7.1721875 3.7265625 6.359375 C2.21089263 4.28818811 1.05780366 2.32930503 0 0 Z " fill="#5785CE" transform="translate(1759,864)"/>
<path d="M0 0 C2.475 0.99 2.475 0.99 5 2 C2.03 6.95 2.03 6.95 -1 12 C-1.33 11.34 -1.66 10.68 -2 10 C-1.67 9.34 -1.34 8.68 -1 8 C-1.66 7.67 -2.32 7.34 -3 7 C-3.1875 4.625 -3.1875 4.625 -3 2 C-2.01 1.34 -1.02 0.68 0 0 Z " fill="#2763C0" transform="translate(1707,752)"/>
<path d="M0 0 C0.144375 0.61875 0.28875 1.2375 0.4375 1.875 C0.93152225 4.03258322 0.93152225 4.03258322 2 6 C1.278125 5.979375 0.55625 5.95875 -0.1875 5.9375 C-2.91925138 5.99820559 -5.34256091 6.39258535 -8 7 C-8 7.99 -8 8.98 -8 10 C-9.65 9.67 -11.3 9.34 -13 9 C-8.91266859 5.55131413 -4.56194093 2.76206846 0 0 Z " fill="#46B957" transform="translate(1324,1169)"/>
<path d="M0 0 C0.33 1.32 0.66 2.64 1 4 C0.01 4.495 0.01 4.495 -1 5 C-1 5.66 -1 6.32 -1 7 C-2.65 7.33 -4.3 7.66 -6 8 C-6 8.66 -6 9.32 -6 10 C-8.97 9.505 -8.97 9.505 -12 9 C-8.53005564 5.0963126 -4.44775994 2.63411025 0 0 Z " fill="#45B857" transform="translate(1768,877)"/>
<path d="M0 0 C2.64 0.33 5.28 0.66 8 1 C6.55746343 4.36591866 4.66735273 6.51047079 2 9 C0.50178941 5.62902617 0 3.79557881 0 0 Z " fill="#1C5DBC" transform="translate(1814,841)"/>
<path d="M0 0 C3.75730247 1.6281644 6.616823 4.01401917 9.75 6.625 C11.22726562 7.85089844 11.22726562 7.85089844 12.734375 9.1015625 C13.85585938 10.04128906 13.85585938 10.04128906 15 11 C14.01 12.32 13.02 13.64 12 15 C10.18503664 12.87706098 8.37295406 10.75177875 6.5625 8.625 C6.04623047 8.02171875 5.52996094 7.4184375 4.99804688 6.796875 C1.11328125 2.2265625 1.11328125 2.2265625 0 0 Z " fill="#41B753" transform="translate(283,1181)"/>
<path d="M0 0 C1.485 0.99 1.485 0.99 3 2 C3.2487793 5.07275391 3.2487793 5.07275391 3.07421875 8.9765625 C3.04777786 9.66181 3.02133698 10.3470575 2.99409485 11.05307007 C2.90622738 13.2445899 2.7971224 15.43447099 2.6875 17.625 C2.62425157 19.10931603 2.56238515 20.59369164 2.50195312 22.078125 C2.35067376 25.71957803 2.1803333 29.35985716 2 33 C1.67 33 1.34 33 1 33 C0.67 22.11 0.34 11.22 0 0 Z " fill="#749AD6" transform="translate(1676,858)"/>
<path d="M0 0 C2.475 0.495 2.475 0.495 5 1 C6.1651105 3.330221 7.21069203 5.51064409 8 8 C7.01 9.485 7.01 9.485 6 11 C5.34 11 4.68 11 4 11 C2.68 7.37 1.36 3.74 0 0 Z " fill="#4176C8" transform="translate(1656,768)"/>
<path d="M0 0 C0.33 0 0.66 0 1 0 C1 6.93 1 13.86 1 21 C0.01 21 -0.98 21 -2 21 C-1.85796663 18.62471849 -1.71148388 16.24984749 -1.5625 13.875 C-1.52318359 13.20984375 -1.48386719 12.5446875 -1.44335938 11.859375 C-1.187848 7.84981183 -0.73217587 3.95005804 0 0 Z " fill="#6992D3" transform="translate(1674,491)"/>
<path d="M0 0 C6.0546875 -0.1953125 6.0546875 -0.1953125 8 0 C8.66 0.66 9.32 1.32 10 2 C5.05 4.97 5.05 4.97 0 8 C-0.33 7.34 -0.66 6.68 -1 6 C-0.01 5.01 0.98 4.02 2 3 C1.01 3 0.02 3 -1 3 C-0.67 2.01 -0.34 1.02 0 0 Z " fill="#205DBE" transform="translate(1745,712)"/>
<path d="M0 0 C0 0.99 0 1.98 0 3 C-0.66 3 -1.32 3 -2 3 C-2.433125 4.2065625 -2.433125 4.2065625 -2.875 5.4375 C-4 8 -4 8 -6 9 C-7.33333333 9.33333333 -8.66666667 9.66666667 -10 10 C-10.99 10.495 -10.99 10.495 -12 11 C-12.66 10.34 -13.32 9.68 -14 9 C-9.38 6.03 -4.76 3.06 0 0 Z " fill="#47B959" transform="translate(809,1507)"/>
<path d="M0 0 C0.99 0.33 1.98 0.66 3 1 C3 1.66 3 2.32 3 3 C3.99 3.33 4.98 3.66 6 4 C6.5625 5.875 6.5625 5.875 7 8 C7.99 9.485 7.99 9.485 9 11 C8.625 13.1875 8.625 13.1875 8 15 C7.01287122 13.75627811 6.03560095 12.50472782 5.0625 11.25 C4.51722656 10.55390625 3.97195313 9.8578125 3.41015625 9.140625 C2.00328518 7.00498693 1.47942276 5.48290523 1 3 C0.67 2.01 0.34 1.02 0 0 Z " fill="#5684CD" transform="translate(1636,733)"/>
<path d="M0 0 C2.31 0.66 4.62 1.32 7 2 C2.375 6.875 2.375 6.875 -1 8 C-1.66 6.68 -2.32 5.36 -3 4 C-2.01 2.68 -1.02 1.36 0 0 Z " fill="#47B958" transform="translate(727,1716)"/>
<path d="M0 0 C0.66 0.33 1.32 0.66 2 1 C1.01 2.98 0.02 4.96 -1 7 C-1.87978516 6.67515625 -1.87978516 6.67515625 -2.77734375 6.34375 C-5.01805756 5.76172347 -5.01805756 5.76172347 -6.81640625 7.03125 C-7.68072266 7.75828125 -7.68072266 7.75828125 -8.5625 8.5 C-10.31640625 9.96875 -10.31640625 9.96875 -12 11 C-12.99 10.67 -13.98 10.34 -15 10 C-10.05 6.7 -5.1 3.4 0 0 Z " fill="#4EBC5F" transform="translate(1081,1328)"/>
<path d="M0 0 C1.32 0.66 2.64 1.32 4 2 C4 4.97 4 7.94 4 11 C2.35 11 0.7 11 -1 11 C-0.67 9.68 -0.34 8.36 0 7 C0.66 7 1.32 7 2 7 C1.67 6.01 1.34 5.02 1 4 C0.01 4.66 -0.98 5.32 -2 6 C-1.34 4.02 -0.68 2.04 0 0 Z " fill="#477AC9" transform="translate(1652,573)"/>
<path d="M0 0 C3.45835793 0.28819649 4.78380733 0.78965038 7.3125 3.25 C9.12328851 6.2009146 9.38684492 7.61510691 9 11 C5.36440339 7.56638098 2.63886654 4.2026393 0 0 Z " fill="#41B752" transform="translate(332,1240)"/>
<path d="M0 0 C1.65 0 3.3 0 5 0 C5.33 0.99 5.66 1.98 6 3 C4.23494565 3.86604534 2.46271926 4.71748642 0.6875 5.5625 C-0.79169922 6.27599609 -0.79169922 6.27599609 -2.30078125 7.00390625 C-5 8 -5 8 -8 7 C-7.67 6.34 -7.34 5.68 -7 5 C-4.6859378 4.26924352 -2.35171131 3.59861742 0 3 C0 2.01 0 1.02 0 0 Z " fill="#1D5ABD" transform="translate(1779,696)"/>
<path d="M0 0 C0.33 0.99 0.66 1.98 1 3 C0.360625 3.433125 -0.27875 3.86625 -0.9375 4.3125 C-3.26746003 5.91239177 -3.26746003 5.91239177 -4 9 C-5.32 8.67 -6.64 8.34 -8 8 C-8 8.66 -8 9.32 -8 10 C-9.65 10.33 -11.3 10.66 -13 11 C-9.0299782 6.78185183 -4.69159716 3.38772897 0 0 Z " fill="#80A2D8" transform="translate(1613,621)"/>
<path d="M0 0 C1.231394 3.69418201 0.64432764 6.2056261 0 10 C-1.32 9.34 -2.64 8.68 -4 8 C-4 5.69 -4 3.38 -4 1 C-2 0 -2 0 0 0 Z " fill="#E8EEF7" transform="translate(1732,845)"/>
<path d="M0 0 C9.59453303 2.89066059 9.59453303 2.89066059 13 6 C8.62065881 5.48041715 4.31196609 4.94324258 0 4 C-0.33 3.01 -0.66 2.02 -1 1 C-0.67 0.67 -0.34 0.34 0 0 Z " fill="#1F5CBE" transform="translate(1800,835)"/>
<path d="M0 0 C2.31 0.66 4.62 1.32 7 2 C7 3.32 7 4.64 7 6 C4.125 5.6875 4.125 5.6875 1 5 C0.34 4.01 -0.32 3.02 -1 2 C-0.67 1.34 -0.34 0.68 0 0 Z " fill="#1757BB" transform="translate(1738,634)"/>
<path d="M0 0 C2.31 0.33 4.62 0.66 7 1 C6.01 3.31 5.02 5.62 4 8 C3.01 8 2.02 8 1 8 C1.020625 7.236875 1.04125 6.47375 1.0625 5.6875 C1.12942841 2.89814214 1.12942841 2.89814214 0 0 Z " fill="#2B65C0" transform="translate(1696,768)"/>
<path d="M0 0 C1.95216435 1.95216435 2.84826645 3.53199953 4 6 C5.32 5.67 6.64 5.34 8 5 C7.34 6.65 6.68 8.3 6 10 C4.65826597 9.07456291 3.32679841 8.13422595 2 7.1875 C1.2575 6.66542969 0.515 6.14335938 -0.25 5.60546875 C-0.8275 5.07566406 -1.405 4.54585937 -2 4 C-2 3.01 -2 2.02 -2 1 C-1.34 0.67 -0.68 0.34 0 0 Z " fill="#1D5CBB" transform="translate(611,1412)"/>
<path d="M0 0 C0.33 0.66 0.66 1.32 1 2 C1.66 2 2.32 2 3 2 C2.938125 3.093125 2.87625 4.18625 2.8125 5.3125 C2.64402086 8.92126083 2.64402086 8.92126083 4.5 10.9375 C4.995 11.288125 5.49 11.63875 6 12 C5.01 13.32 4.02 14.64 3 16 C1.35199144 12.33552568 0.66419027 9.18796534 0.375 5.1875 C0.30023437 4.21167969 0.22546875 3.23585938 0.1484375 2.23046875 C0.09945313 1.49441406 0.05046875 0.75835938 0 0 Z " fill="#4378C8" transform="translate(1672,822)"/>
<path d="M0 0 C0.99 0.33 1.98 0.66 3 1 C2.835 1.598125 2.67 2.19625 2.5 2.8125 C1.8885876 5.11344336 1.8885876 5.11344336 2 8 C-0.5 10.1875 -0.5 10.1875 -3 12 C-2.01 8.04 -1.02 4.08 0 0 Z " fill="#4C7ECA" transform="translate(1666,536)"/>
<path d="M0 0 C1.65 0 3.3 0 5 0 C1.92486954 3.37368681 -1.28518856 5.50901962 -5.25 7.75 C-6.86648438 8.67039062 -6.86648438 8.67039062 -8.515625 9.609375 C-9.74539063 10.29773437 -9.74539063 10.29773437 -11 11 C-9.83630874 7.50892621 -9.11026462 7.14777237 -6.0625 5.3125 C-4.99708984 4.65701172 -4.99708984 4.65701172 -3.91015625 3.98828125 C-2 3 -2 3 0 3 C0 2.01 0 1.02 0 0 Z " fill="#34A492" transform="translate(1181,1220)"/>
<path d="M0 0 C-0.33 1.32 -0.66 2.64 -1 4 C-2.32 4 -3.64 4 -5 4 C-4.67 4.99 -4.34 5.98 -4 7 C-6.31 7 -8.62 7 -11 7 C-8.21677024 3.90752249 -4.31039412 0 0 0 Z " fill="#20AF77" transform="translate(1052,1303)"/>
<path d="M0 0 C2.00720923 0.28674418 4.0085944 0.61866701 6 1 C3.63707344 3.52588702 2.33537489 4.88820837 -1 6 C-1.66 5.67 -2.32 5.34 -3 5 C-1.125 1.125 -1.125 1.125 0 0 Z " fill="#165AB6" transform="translate(1204,1203)"/>
<path d="M0 0 C0.99 0.33 1.98 0.66 3 1 C0.53747578 5.20077662 -2.50494222 6.39462222 -7 8 C-7.99 8 -8.98 8 -10 8 C-6.97731777 4.74480375 -3.85903564 2.21689281 0 0 Z " fill="#48B959" transform="translate(1346,1154)"/>
<path d="M0 0 C0.99 0 1.98 0 3 0 C2.67 2.64 2.34 5.28 2 8 C1.34 8 0.68 8 0 8 C-0.33 9.65 -0.66 11.3 -1 13 C-2.07310858 9.72814447 -1.89263102 7.57052408 -1.0625 4.25 C-0.86785156 3.45078125 -0.67320312 2.6515625 -0.47265625 1.828125 C-0.31667969 1.22484375 -0.16070312 0.6215625 0 0 Z " fill="#2360C1" transform="translate(505,836)"/>
<path d="M0 0 C1.32 0 2.64 0 4 0 C4.66 1.65 5.32 3.3 6 5 C4.02 5.99 4.02 5.99 2 7 C0.68 5.35 -0.64 3.7 -2 2 C-1.34 2 -0.68 2 0 2 C0 1.34 0 0.68 0 0 Z " fill="#6590D3" transform="translate(1623,720)"/>
<path d="M0 0 C0.99 0.33 1.98 0.66 3 1 C1.515 2.485 1.515 2.485 0 4 C0.66 4.33 1.32 4.66 2 5 C1.67 5.66 1.34 6.32 1 7 C-1.97 6.67 -4.94 6.34 -8 6 C-5.38485683 3.87961365 -2.80362384 1.86908256 0 0 Z " fill="#43B954" transform="translate(765,1536)"/>
<path d="M0 0 C0 0.99 0 1.98 0 3 C-3.33333333 6 -3.33333333 6 -6 6 C-6.33 6.99 -6.66 7.98 -7 9 C-7.66 9 -8.32 9 -9 9 C-10.66965451 9.31802943 -12.33678518 9.64984951 -14 10 C-9.57557408 6.28919117 -4.82596069 3.15422267 0 0 Z " fill="#4BBB5C" transform="translate(1051,1348)"/>
<path d="M0 0 C-5.69620253 4.74683544 -5.69620253 4.74683544 -9 6 C-9.66 5.67 -10.32 5.34 -11 5 C-8.45499142 -0.63537615 -5.97208347 -0.11059414 0 0 Z " fill="#1A59BB" transform="translate(1020,1322)"/>
<path d="M0 0 C0.66 0.33 1.32 0.66 2 1 C1.67 2.32 1.34 3.64 1 5 C-1.64 5.66 -4.28 6.32 -7 7 C-7.33 6.34 -7.66 5.68 -8 5 C-6.71475739 4.13619741 -5.42157581 3.28419631 -4.125 2.4375 C-3.04605469 1.72400391 -3.04605469 1.72400391 -1.9453125 0.99609375 C-1.30335937 0.66738281 -0.66140625 0.33867188 0 0 Z " fill="#20AD78" transform="translate(1100,1272)"/>
<path d="M0 0 C2.64 0.33 5.28 0.66 8 1 C8.33 2.98 8.66 4.96 9 7 C8.34 6.67 7.68 6.34 7 6 C7 5.34 7 4.68 7 4 C5.68 4.33 4.36 4.66 3 5 C2.01 3.35 1.02 1.7 0 0 Z " fill="#46B856" transform="translate(691,1680)"/>
<path d="M0 0 C1.98 0 3.96 0 6 0 C6.33 2.97 6.66 5.94 7 9 C4.03595495 6.19195732 1.55500981 3.81684226 0 0 Z " fill="#44B854" transform="translate(537,1491)"/>
<path d="M0 0 C1.32 0.33 2.64 0.66 4 1 C4 1.66 4 2.32 4 3 C5.32 2.67 6.64 2.34 8 2 C8 2.66 8 3.32 8 4 C8.66 4.33 9.32 4.66 10 5 C10.33 5.99 10.66 6.98 11 8 C6.89160936 6.54997977 3.49655387 4.6020866 0 2 C0 1.34 0 0.68 0 0 Z " fill="#205EBD" transform="translate(640,1437)"/>
<path d="M0 0 C0 3 0 3 -2.375 5.625 C-5 8 -5 8 -7 9 C-7 8.34 -7 7.68 -7 7 C-7.99 7.33 -8.98 7.66 -10 8 C-8.76736651 4.30209954 -7.79947549 4.0645154 -4.4375 2.3125 C-3.61121094 1.87550781 -2.78492188 1.43851563 -1.93359375 0.98828125 C-1.29550781 0.66214844 -0.65742187 0.33601562 0 0 Z " fill="#9AB5E0" transform="translate(1590,637)"/>
<path d="M0 0 C2.12038635 2.61514317 4.13091744 5.19637616 6 8 C2.62537285 7.45276317 0.91765 6.9451 -2 5 C-1.34 3.35 -0.68 1.7 0 0 Z " fill="#356CC4" transform="translate(1698,592)"/>
<path d="M0 0 C4.2026393 2.63886654 7.56638098 5.36440339 11 9 C7.51669784 8.35494404 4.90567134 7.01782732 2 5 C2 4.34 2 3.68 2 3 C1.34 3 0.68 3 0 3 C0 2.01 0 1.02 0 0 Z " fill="#45B854" transform="translate(552,1397)"/>
<path d="M0 0 C2.375 0.625 2.375 0.625 5 2 C6.3125 5.125 6.3125 5.125 7 8 C6.01 8 5.02 8 4 8 C0 3.77142857 0 3.77142857 0 0 Z " fill="#1959BC" transform="translate(592,1395)"/>
<path d="M0 0 C2.125 6.75 2.125 6.75 1 9 C-0.98 6.36 -2.96 3.72 -5 1 C-3 0 -3 0 0 0 Z " fill="#45B857" transform="translate(365,1274)"/>
<path d="M0 0 C1.9375 0.6875 1.9375 0.6875 4 2 C4.75 4.625 4.75 4.625 5 7 C2.13275314 6.42655063 1.1385485 6.1385485 -1 4 C-0.625 1.875 -0.625 1.875 0 0 Z " fill="#39B44C" transform="translate(297,1193)"/>
<path d="M0 0 C0.99 0.66 1.98 1.32 3 2 C-0.87564767 5.61139896 -0.87564767 5.61139896 -3 7 C-5.375 6.8125 -5.375 6.8125 -7 6 C-5.1875 4 -5.1875 4 -3 2 C-2.01 2 -1.02 2 0 2 C0 1.34 0 0.68 0 0 Z " fill="#44B855" transform="translate(1544,1066)"/>
<path d="M0 0 C0.66 0.66 1.32 1.32 2 2 C1.2884375 2.804375 1.2884375 2.804375 0.5625 3.625 C-1.27887231 6.42388591 -1.49066738 8.72571889 -2 12 C-2.99 12.495 -2.99 12.495 -4 13 C-4.45732667 7.28341664 -3.52273754 4.51350747 0 0 Z " fill="#5280CB" transform="translate(1649,579)"/>
<path d="M0 0 C0.66 0.33 1.32 0.66 2 1 C-1.56603219 4.83018272 -5.01706201 7.33902067 -10 9 C-8.77946141 5.33838422 -7.63217696 4.83729526 -4.4375 2.8125 C-3.61121094 2.28269531 -2.78492188 1.75289062 -1.93359375 1.20703125 C-1.29550781 0.80871094 -0.65742187 0.41039062 0 0 Z " fill="#44B855" transform="translate(824,1497)"/>
<path d="M0 0 C3.74281699 2.38179263 6.97727468 4.74475735 10 8 C6.32281907 8 4.92923811 7.17815142 2 5 C0.6875 2.3125 0.6875 2.3125 0 0 Z " fill="#44B756" transform="translate(308,1201)"/>
<path d="M0 0 C2.125 0.9375 2.125 0.9375 4 2 C1.6875 4.0625 1.6875 4.0625 -1 6 C-1.99 5.67 -2.98 5.34 -4 5 C-2.25 1.125 -2.25 1.125 0 0 Z " fill="#42B358" transform="translate(1826,839)"/>
<path d="M0 0 C0.66 0.33 1.32 0.66 2 1 C-3.445 5.455 -3.445 5.455 -9 10 C-9.99 9.34 -10.98 8.68 -12 8 C-8.04 5.36 -4.08 2.72 0 0 Z " fill="#5CBE6D" transform="translate(1850,823)"/>
<path d="M0 0 C2.97 0.495 2.97 0.495 6 1 C5.67 2.32 5.34 3.64 5 5 C3.68 5.33 2.36 5.66 1 6 C0.67 4.02 0.34 2.04 0 0 Z " fill="#1E5CBD" transform="translate(521,563)"/>
<path d="M0 0 C1.85776765 3.13498292 2.20140476 5.37471432 2 9 C1.01 8.67 0.02 8.34 -1 8 C-1.33 9.32 -1.66 10.64 -2 12 C-2.17835515 7.45194365 -1.99785435 4.1205746 0 0 Z " fill="#2EB97B" transform="translate(1485,544)"/>
<path d="M0 0 C0.99 0.33 1.98 0.66 3 1 C3 1.66 3 2.32 3 3 C0.75 4.75 0.75 4.75 -2 6 C-4.3125 5.1875 -4.3125 5.1875 -6 4 C-3.1875 1.9375 -3.1875 1.9375 0 0 Z " fill="#21AF77" transform="translate(1073,1289)"/>
<path d="M0 0 C-3.19990508 2.74277578 -6.00499382 4.6302836 -10 6 C-10 5.34 -10 4.68 -10 4 C-9.34 4 -8.68 4 -8 4 C-8.33 3.01 -8.66 2.02 -9 1 C-6.04335481 -0.4783226 -3.25770263 -0.06032783 0 0 Z " fill="#1E5DBD" transform="translate(1252,1178)"/>
<path d="M0 0 C0.33 1.32 0.66 2.64 1 4 C0.05125 3.979375 -0.8975 3.95875 -1.875 3.9375 C-4.90666283 3.77448174 -4.90666283 3.77448174 -7 5 C-7.66 4.34 -8.32 3.68 -9 3 C-5.92807025 0.26939578 -4.09590633 -0.34132553 0 0 Z " fill="#41B852" transform="translate(1398,1123)"/>
<path d="M0 0 C0.33 0.99 0.66 1.98 1 3 C-1.475 4.485 -1.475 4.485 -4 6 C-4.99 5.34 -5.98 4.68 -7 4 C-6.34 4 -5.68 4 -5 4 C-5 3.01 -5 2.02 -5 1 C-3 0 -3 0 0 0 Z " fill="#43B754" transform="translate(1575,1042)"/>
<path d="M0 0 C0.33 0.99 0.66 1.98 1 3 C-1.475 4.485 -1.475 4.485 -4 6 C-4.99 5.34 -5.98 4.68 -7 4 C-6.34 4 -5.68 4 -5 4 C-5 3.01 -5 2.02 -5 1 C-3 0 -3 0 0 0 Z " fill="#43B754" transform="translate(1615,1010)"/>
<path d="M0 0 C0.33 0.99 0.66 1.98 1 3 C-1.475 4.485 -1.475 4.485 -4 6 C-4.99 5.34 -5.98 4.68 -7 4 C-6.34 4 -5.68 4 -5 4 C-5 3.01 -5 2.02 -5 1 C-3 0 -3 0 0 0 Z " fill="#43B754" transform="translate(1655,978)"/>
<path d="M0 0 C0.33 0.99 0.66 1.98 1 3 C-1.475 4.485 -1.475 4.485 -4 6 C-4.99 5.34 -5.98 4.68 -7 4 C-6.34 4 -5.68 4 -5 4 C-5 3.01 -5 2.02 -5 1 C-3 0 -3 0 0 0 Z " fill="#43B754" transform="translate(1695,946)"/>
<path d="M0 0 C4 0 4 0 5.703125 1.53125 C6.21359375 2.1809375 6.7240625 2.830625 7.25 3.5 C8.03117187 4.47453125 8.03117187 4.47453125 8.828125 5.46875 C9.21484375 5.9740625 9.6015625 6.479375 10 7 C9.01 7.33 8.02 7.66 7 8 C6.34 7.67 5.68 7.34 5 7 C5 6.01 5 5.02 5 4 C4.34 4 3.68 4 3 4 C1.375 2 1.375 2 0 0 Z " fill="#2E66C2" transform="translate(1813,662)"/>
<path d="M0 0 C0.99 0.33 1.98 0.66 3 1 C-0.46741134 3.95749791 -3.86873527 6.07848152 -8 8 C-7.67 6.68 -7.34 5.36 -7 4 C-4.69 3.34 -2.38 2.68 0 2 C0 1.34 0 0.68 0 0 Z " fill="#1C59BD" transform="translate(1004,1329)"/>
<path d="M0 0 C0.33 0.99 0.66 1.98 1 3 C0.67 3.66 0.34 4.32 0 5 C-2.06640625 5.6328125 -2.06640625 5.6328125 -4.5625 6.125 C-5.38878906 6.29257813 -6.21507812 6.46015625 -7.06640625 6.6328125 C-7.70449219 6.75398438 -8.34257813 6.87515625 -9 7 C-6.24479785 4.04070881 -3.53372712 1.96318174 0 0 Z " fill="#4ABA5A" transform="translate(1109,1310)"/>
<path d="M0 0 C0.99 0 1.98 0 3 0 C2.125 6.75 2.125 6.75 1 9 C0.01 8.67 -0.98 8.34 -2 8 C-1.34 5.36 -0.68 2.72 0 0 Z " fill="#376FC4" transform="translate(1670,528)"/>
<path d="M0 0 C2.6855594 2.6855594 3.06049974 5.37621328 4 9 C3.34 9 2.68 9 2 9 C2 8.34 2 7.68 2 7 C1.01 7 0.02 7 -1 7 C-1.04254356 5.00045254 -1.04080783 2.99958364 -1 1 C-0.67 0.67 -0.34 0.34 0 0 Z " fill="#115CB3" transform="translate(1348,505)"/>
<path d="M0 0 C0.66 0.66 1.32 1.32 2 2 C1 5 1 5 -2.0625 6.6875 C-3.031875 7.120625 -4.00125 7.55375 -5 8 C-5 7.01 -5 6.02 -5 5 C-3.68 4.67 -2.36 4.34 -1 4 C-0.67 2.68 -0.34 1.36 0 0 Z " fill="#1F5DBF" transform="translate(937,1369)"/>
<path d="M0 0 C0.66 0.33 1.32 0.66 2 1 C0.71034824 2.37562854 -0.62689293 3.70766393 -2 5 C-2.66 5 -3.32 5 -4 5 C-4 5.66 -4 6.32 -4 7 C-5.32 7.33 -6.64 7.66 -8 8 C-6.49776416 3.79373966 -3.71449966 2.26099979 0 0 Z " fill="#41B754" transform="translate(1060,1342)"/>
<path d="M0 0 C0.66 0.33 1.32 0.66 2 1 C-0.66666667 3.66666667 -3.33333333 6.33333333 -6 9 C-6.66 8.67 -7.32 8.34 -8 8 C-6.88333826 4.65001479 -6.25305075 4.20659778 -3.4375 2.3125 C-2.79683594 1.87550781 -2.15617187 1.43851563 -1.49609375 0.98828125 C-1.00238281 0.66214844 -0.50867187 0.33601563 0 0 Z " fill="#E8F6F1" transform="translate(1193,1215)"/>
<path d="M0 0 C1.32 0.33 2.64 0.66 4 1 C1.36 2.98 -1.28 4.96 -4 7 C-4.33 6.34 -4.66 5.68 -5 5 C-2.75 2.4375 -2.75 2.4375 0 0 Z " fill="#2460BE" transform="translate(1740,720)"/>
<path d="M0 0 C1.65 0.33 3.3 0.66 5 1 C4.67 2.32 4.34 3.64 4 5 C1.5625 4.625 1.5625 4.625 -1 4 C-1.33 3.34 -1.66 2.68 -2 2 C-1.34 2 -0.68 2 0 2 C0 1.34 0 0.68 0 0 Z " fill="#92B0DD" transform="translate(1587,700)"/>
<path d="M0 0 C0.99 0 1.98 0 3 0 C3 3.3 3 6.6 3 10 C2.34 10 1.68 10 1 10 C0.67 6.7 0.34 3.4 0 0 Z " fill="#346DC3" transform="translate(1672,512)"/>
<path d="M0 0 C0.33 0.66 0.66 1.32 1 2 C0.34 2.61875 -0.32 3.2375 -1 3.875 C-3.2284549 5.75637427 -3.2284549 5.75637427 -3 8 C-5.475 7.01 -5.475 7.01 -8 6 C-5.38485683 3.87961365 -2.80362384 1.86908256 0 0 Z " fill="#46B858" transform="translate(1205,1247)"/>
<path d="M0 0 C3.96 0.99 3.96 0.99 8 2 C7.67 2.66 7.34 3.32 7 4 C4.03 4 1.06 4 -2 4 C-2 3.34 -2 2.68 -2 2 C-1.34 2 -0.68 2 0 2 C0 1.34 0 0.68 0 0 Z " fill="#215EBF" transform="translate(1786,651)"/>
<path d="M0 0 C0.66 0 1.32 0 2 0 C2.66 1.98 3.32 3.96 4 6 C2.68 6.33 1.36 6.66 0 7 C-0.66 5.35 -1.32 3.7 -2 2 C-1.34 2 -0.68 2 0 2 C0 1.34 0 0.68 0 0 Z " fill="#1B5ABC" transform="translate(1331,465)"/>
<path d="M0 0 C4.875 2.75 4.875 2.75 6 5 C2.25 6.125 2.25 6.125 0 5 C0 3.35 0 1.7 0 0 Z " fill="#44B854" transform="translate(594,1431)"/>
<path d="M0 0 C-2.88087546 2.40072955 -5.56404834 4.47291037 -9 6 C-7.01260984 0.46369883 -5.82303895 -0.15323787 0 0 Z " fill="#34BA80" transform="translate(1135,1254)"/>
<path d="M0 0 C-0.33 1.32 -0.66 2.64 -1 4 C-1.99 4 -2.98 4 -4 4 C-4.33 4.99 -4.66 5.98 -5 7 C-5.99 6.01 -6.98 5.02 -8 4 C-2.25 0 -2.25 0 0 0 Z " fill="#43B856" transform="translate(1304,1183)"/>
<path d="M0 0 C-0.66 1.32 -1.32 2.64 -2 4 C-4.31 3.34 -6.62 2.68 -9 2 C-9 1.67 -9 1.34 -9 1 C-3.375 -1.125 -3.375 -1.125 0 0 Z " fill="#91AFDE" transform="translate(1753,857)"/>
<path d="M0 0 C0.66 0 1.32 0 2 0 C2.433125 1.423125 2.433125 1.423125 2.875 2.875 C3.76825109 6.05211578 3.76825109 6.05211578 6 8 C5.34 9.32 4.68 10.64 4 12 C2.18757677 7.9811485 0.66498383 4.38889325 0 0 Z " fill="#4377C5" transform="translate(1662,783)"/>
<path d="M0 0 C0.99 0.33 1.98 0.66 3 1 C2.01 2.485 2.01 2.485 1 4 C-2.625 4.6875 -2.625 4.6875 -6 5 C-2.25 1.125 -2.25 1.125 0 0 Z " fill="#49B959" transform="translate(1004,1379)"/>
<path d="M0 0 C3.94139078 1.66751148 6.7892812 4.22710649 10 7 C9.01 7.66 8.02 8.32 7 9 C5.83037314 7.69013727 4.66437056 6.3770374 3.5 5.0625 C2.8503125 4.33160156 2.200625 3.60070313 1.53125 2.84765625 C0 1 0 1 0 0 Z " fill="#68C376" transform="translate(283,1181)"/>
<path d="M0 0 C0.66 0.66 1.32 1.32 2 2 C1.625 5.625 1.625 5.625 1 9 C0.01 9.33 -0.98 9.66 -2 10 C-1.34 6.7 -0.68 3.4 0 0 Z " fill="#1C5BC0" transform="translate(484,1163)"/>
<path d="M0 0 C0.99 1.32 1.98 2.64 3 4 C1.02 4.99 1.02 4.99 -1 6 C-1 5.34 -1 4.68 -1 4 C-1.99 3.67 -2.98 3.34 -4 3 C-3 1 -3 1 0 0 Z " fill="#2FB77B" transform="translate(1365,1097)"/>
<path d="M0 0 C0 0.66 0 1.32 0 2 C-1.62626404 3.38232443 -3.2925002 4.71937515 -5 6 C-6.32 5.34 -7.64 4.68 -9 4 C-3.375 0 -3.375 0 0 0 Z " fill="#49BA5A" transform="translate(1620,976)"/>
<path d="M0 0 C0.66 0.33 1.32 0.66 2 1 C1.67 2.32 1.34 3.64 1 5 C-1.64 5.33 -4.28 5.66 -7 6 C-4.74259377 3.66475218 -2.7194239 1.81294927 0 0 Z " fill="#4AB95C" transform="translate(1693,926)"/>
<path d="M0 0 C0.33 0.66 0.66 1.32 1 2 C0.67 2.99 0.34 3.98 0 5 C-1.65 5.33 -3.3 5.66 -5 6 C-5 5.01 -5 4.02 -5 3 C-2.5 1.3125 -2.5 1.3125 0 0 Z " fill="#89A9D9" transform="translate(1753,833)"/>
<path d="M0 0 C0.33 0 0.66 0 1 0 C1.33 3.3 1.66 6.6 2 10 C0.68 9.67 -0.64 9.34 -2 9 C-1.34 6.03 -0.68 3.06 0 0 Z " fill="#105DB0" transform="translate(1380,608)"/>
<path d="M0 0 C2.125 0.375 2.125 0.375 4 1 C1.31158141 3.25245881 -0.64641875 4.88213958 -4 6 C-2.84826645 3.53199953 -1.95216435 1.95216435 0 0 Z " fill="#245FC0" transform="translate(765,1477)"/>
<path d="M0 0 C1.31223496 3.93670488 0.24296256 6.12488144 -1 10 C-1.66 9.34 -2.32 8.68 -3 8 C-2.75 4.4375 -2.75 4.4375 -2 1 C-1.34 0.67 -0.68 0.34 0 0 Z " fill="#D8E2F3" transform="translate(1734,843)"/>
<path d="M0 0 C0.66 0.33 1.32 0.66 2 1 C1.67 2.65 1.34 4.3 1 6 C-0.65 6.33 -2.3 6.66 -4 7 C-3.67 5.35 -3.34 3.7 -3 2 C-2.34 2 -1.68 2 -1 2 C-0.67 1.34 -0.34 0.68 0 0 Z " fill="#1B5ABB" transform="translate(1796,832)"/>
<path d="M0 0 C0.99 0.99 1.98 1.98 3 3 C3 4.32 3 5.64 3 7 C2.34 7 1.68 7 1 7 C0.67 7.66 0.34 8.32 0 9 C0 6.03 0 3.06 0 0 Z " fill="#2864C2" transform="translate(524,725)"/>
<path d="M0 0 C2.9375 1.3125 2.9375 1.3125 6 3 C6.33 3.99 6.66 4.98 7 6 C3.62496331 4.8141763 1.35277269 3.72426311 -1 1 C-0.67 0.67 -0.34 0.34 0 0 Z " fill="#7A9ED6" transform="translate(1607,711)"/>
<path d="M0 0 C2.64 0.99 5.28 1.98 8 3 C8 3.66 8 4.32 8 5 C5.69 4.67 3.38 4.34 1 4 C0.67 2.68 0.34 1.36 0 0 Z " fill="#225EC0" transform="translate(1755,639)"/>
<path d="M0 0 C1.65 0 3.3 0 5 0 C3.35 1.65 1.7 3.3 0 5 C-0.99 4.67 -1.98 4.34 -3 4 C-2.67 3.34 -2.34 2.68 -2 2 C-1.34 2 -0.68 2 0 2 C0 1.34 0 0.68 0 0 Z " fill="#49B958" transform="translate(1415,1169)"/>
<path d="M0 0 C1.37432457 3.81756824 0.67975039 7.07255329 0 11 C-1.76462683 7.91190305 -2 6.76687864 -2 3 C-1.34 3 -0.68 3 0 3 C0 2.01 0 1.02 0 0 Z " fill="#5082CC" transform="translate(1682,829)"/>
<path d="M0 0 C1.65 1.32 3.3 2.64 5 4 C4.67 4.66 4.34 5.32 4 6 C2.35 5.67 0.7 5.34 -1 5 C-0.67 3.35 -0.34 1.7 0 0 Z " fill="#2562BF" transform="translate(1721,618)"/>
<path d="M0 0 C-0.99 0.33 -1.98 0.66 -3 1 C-3.33 1.99 -3.66 2.98 -4 4 C-5.32 3.01 -6.64 2.02 -8 1 C-4.93251126 -0.86240388 -3.40254489 -1.2151946 0 0 Z " fill="#1E5DC0" transform="translate(699,1466)"/>
<path d="M0 0 C3 1.8125 3 1.8125 6 4 C6 4.99 6 5.98 6 7 C3 5.1875 3 5.1875 0 3 C0 2.01 0 1.02 0 0 Z " fill="#48B959" transform="translate(496,1352)"/>
<path d="M0 0 C1.2065625 0.0309375 1.2065625 0.0309375 2.4375 0.0625 C0.7875 1.7125 -0.8625 3.3625 -2.5625 5.0625 C-3.125 3.125 -3.125 3.125 -3.5625 1.0625 C-2.5625 0.0625 -2.5625 0.0625 0 0 Z " fill="#33BA7F" transform="translate(1119.5625,1261.9375)"/>
<path d="M0 0 C1.9375 0.6875 1.9375 0.6875 4 2 C4.75 4.625 4.75 4.625 5 7 C4.01 7.495 4.01 7.495 3 8 C2.01 5.36 1.02 2.72 0 0 Z " fill="#205EBF" transform="translate(511,1259)"/>
<path d="M0 0 C0.33 0.66 0.66 1.32 1 2 C0.34 2 -0.32 2 -1 2 C-1 2.66 -1 3.32 -1 4 C-1.99 4.66 -2.98 5.32 -4 6 C-5.32 5.67 -6.64 5.34 -8 5 C-4.04 2.525 -4.04 2.525 0 0 Z " fill="#4FBD5F" transform="translate(1485,1063)"/>
<path d="M0 0 C0.8125 1.6875 0.8125 1.6875 1 4 C-1.4375 6.75 -1.4375 6.75 -4 9 C-2.94124926 5.59687262 -1.99097846 2.98646769 0 0 Z " fill="#2F69C2" transform="translate(1716,744)"/>
</svg>
